<svg width="177" height="66" viewBox="0 0 177 66" fill="none" xmlns="http://www.w3.org/2000/svg">
<rect x="0.5" y="0.5" width="175.01" height="64.3279" rx="12.5" fill="#090909" stroke="#A6A6A6"/>
<path d="M40.8856 33.624C40.92 30.9484 42.3513 28.4167 44.6219 27.0153C43.1895 24.9616 40.7902 23.6594 38.294 23.581C35.6316 23.3005 33.0505 25.1804 31.6938 25.1804C30.3109 25.1804 28.222 23.6089 25.9726 23.6553C23.0407 23.7504 20.3074 25.4239 18.8809 27.9972C15.8146 33.3268 18.1018 41.1594 21.0391 45.4675C22.5086 47.577 24.2261 49.9334 26.4735 49.8498C28.6726 49.7582 29.494 48.442 32.1486 48.442C34.7785 48.442 35.5491 49.8498 37.842 49.7967C40.2018 49.7582 41.6886 47.6778 43.1066 45.5483C44.1625 44.0452 44.975 42.3839 45.514 40.626C42.7408 39.4485 40.8889 36.6468 40.8856 33.624Z" fill="white"/>
<path d="M36.5546 20.7479C37.8413 19.1972 38.4752 17.2042 38.3217 15.192C36.356 15.3992 34.5402 16.3424 33.2361 17.8335C31.961 19.2904 31.2973 21.2484 31.4228 23.1837C33.3892 23.204 35.3224 22.2865 36.5546 20.7479Z" fill="white"/>
<path d="M119.323 30.8606V34.1029H117.299V36.2291H119.323V43.4536C119.323 45.9206 120.435 46.9073 123.231 46.9073C123.723 46.9073 124.191 46.8486 124.6 46.7781V44.6754C124.249 44.7106 124.027 44.7341 123.641 44.7341C122.389 44.7341 121.839 44.1467 121.839 42.8075V36.2291H124.6V34.1029H121.839V30.8606H119.323Z" fill="white"/>
<path d="M131.725 47.0835C135.446 47.0835 137.728 44.5814 137.728 40.4346C137.728 36.3113 135.434 33.7974 131.725 33.7974C128.004 33.7974 125.71 36.3113 125.71 40.4346C125.71 44.5814 127.992 47.0835 131.725 47.0835ZM131.725 44.8398C129.537 44.8398 128.308 43.2304 128.308 40.4346C128.308 37.6623 129.537 36.0412 131.725 36.0412C133.901 36.0412 135.142 37.6623 135.142 40.4346C135.142 43.2187 133.901 44.8398 131.725 44.8398Z" fill="white"/>
<path d="M139.68 46.8368H142.196V39.2834C142.196 37.4861 143.541 36.2761 145.449 36.2761C145.893 36.2761 146.642 36.3583 146.853 36.4288V33.9384C146.584 33.8679 146.104 33.8327 145.73 33.8327C144.068 33.8327 142.652 34.749 142.289 36.0059H142.102V34.0441H139.68V46.8368Z" fill="white"/>
<path d="M153.1 35.9472C154.96 35.9472 156.177 37.2511 156.236 39.2599H149.8C149.94 37.2629 151.239 35.9472 153.1 35.9472ZM156.224 43.3832C155.756 44.3817 154.715 44.9338 153.193 44.9338C151.181 44.9338 149.882 43.5124 149.8 41.2687V41.1277H158.798V40.2467C158.798 36.2291 156.657 33.7974 153.111 33.7974C149.519 33.7974 147.237 36.3936 147.237 40.4816C147.237 44.5696 149.472 47.0835 153.123 47.0835C156.037 47.0835 158.073 45.6739 158.646 43.3832H156.224Z" fill="white"/>
<path d="M102.825 42.1127C103.019 45.254 105.626 47.263 109.507 47.263C113.655 47.263 116.251 45.1566 116.251 41.7961C116.251 39.154 114.771 37.6929 111.181 36.8528L109.253 36.378C106.972 35.8422 106.051 35.1239 106.051 33.8698C106.051 32.287 107.482 31.252 109.629 31.252C111.666 31.252 113.073 32.2626 113.328 33.882H115.972C115.814 30.9233 113.219 28.8412 109.665 28.8412C105.845 28.8412 103.298 30.9233 103.298 34.0524C103.298 36.6337 104.741 38.1678 107.906 38.9105L110.162 39.4584C112.479 40.0063 113.497 40.8099 113.497 42.1492C113.497 43.7077 111.897 44.84 109.713 44.84C107.373 44.84 105.747 43.7808 105.517 42.1127H102.825Z" fill="white"/>
<path d="M76.7631 33.8327C75.0313 33.8327 73.5335 34.702 72.7612 36.1586H72.574V34.0441H70.1518V51.0893H72.6676V44.8985H72.8665C73.5335 46.2495 74.9728 47.0483 76.7865 47.0483C80.0045 47.0483 82.0522 44.4991 82.0522 40.4346C82.0522 36.3701 80.0045 33.8327 76.7631 33.8327ZM76.0493 44.7811C73.9431 44.7811 72.6208 43.113 72.6208 40.4464C72.6208 37.768 73.9431 36.0999 76.0611 36.0999C78.1907 36.0999 79.4662 37.7328 79.4662 40.4346C79.4662 43.1482 78.1907 44.7811 76.0493 44.7811Z" fill="white"/>
<path d="M90.8555 33.8327C89.1237 33.8327 87.6259 34.702 86.8536 36.1586H86.6664V34.0441H84.2442V51.0893H86.76V44.8985H86.9589C87.6259 46.2495 89.0652 47.0483 90.8789 47.0483C94.0969 47.0483 96.1446 44.4991 96.1446 40.4346C96.1446 36.3701 94.0969 33.8327 90.8555 33.8327ZM90.1417 44.7811C88.0355 44.7811 86.7132 43.113 86.7132 40.4464C86.7132 37.768 88.0355 36.0999 90.1534 36.0999C92.2831 36.0999 93.5586 37.7328 93.5586 40.4346C93.5586 43.1482 92.2831 44.7811 90.1417 44.7811Z" fill="white"/>
<path d="M65.6379 46.8368H68.5245L62.2056 29.2674H59.2827L52.9639 46.8368H55.7534L57.3664 42.1736H64.037L65.6379 46.8368ZM60.6047 32.4574H60.8109L63.3457 39.8846H58.0578L60.6047 32.4574Z" fill="white"/>
<path d="M52.8945 16.875V23.8197H55.3922C57.4536 23.8197 58.6473 22.5443 58.6473 20.3257C58.6473 18.1407 57.444 16.875 55.3922 16.875H52.8945ZM53.9684 17.8568H55.2724C56.7058 17.8568 57.5543 18.7712 57.5543 20.3401C57.5543 21.9331 56.7201 22.8379 55.2724 22.8379H53.9684V17.8568Z" fill="white"/>
<path d="M62.3032 23.9208C63.8277 23.9208 64.7626 22.8957 64.7626 21.1968C64.7626 19.5075 63.8229 18.4776 62.3032 18.4776C60.7788 18.4776 59.8391 19.5075 59.8391 21.1968C59.8391 22.8957 60.774 23.9208 62.3032 23.9208ZM62.3032 23.0016C61.4068 23.0016 60.9034 22.3422 60.9034 21.1968C60.9034 20.061 61.4068 19.3968 62.3032 19.3968C63.1949 19.3968 63.7031 20.061 63.7031 21.1968C63.7031 22.3374 63.1949 23.0016 62.3032 23.0016Z" fill="white"/>
<path d="M72.7235 18.5787H71.6928L70.7627 22.578H70.6812L69.6074 18.5787H68.6198L67.546 22.578H67.4693L66.5344 18.5787H65.4893L66.9275 23.8197H67.987L69.0609 19.9599H69.1424L70.221 23.8197H71.2901L72.7235 18.5787Z" fill="white"/>
<path d="M73.9105 23.8197H74.9412V20.754C74.9412 19.9359 75.4254 19.4257 76.1876 19.4257C76.9499 19.4257 77.3142 19.8444 77.3142 20.6866V23.8197H78.3449V20.4268C78.3449 19.1803 77.7025 18.4776 76.5376 18.4776C75.7514 18.4776 75.2336 18.8289 74.9796 19.4113H74.9028V18.5787H73.9105V23.8197Z" fill="white"/>
<path d="M79.9682 23.8197H80.9989V16.5333H79.9682V23.8197Z" fill="white"/>
<path d="M84.8753 23.9208C86.3998 23.9208 87.3347 22.8957 87.3347 21.1968C87.3347 19.5075 86.395 18.4776 84.8753 18.4776C83.3508 18.4776 82.4112 19.5075 82.4112 21.1968C82.4112 22.8957 83.3461 23.9208 84.8753 23.9208ZM84.8753 23.0016C83.9789 23.0016 83.4755 22.3422 83.4755 21.1968C83.4755 20.061 83.9789 19.3968 84.8753 19.3968C85.767 19.3968 86.2752 20.061 86.2752 21.1968C86.2752 22.3374 85.767 23.0016 84.8753 23.0016Z" fill="white"/>
<path d="M90.4057 23.0352C89.8448 23.0352 89.4373 22.7609 89.4373 22.2893C89.4373 21.8273 89.7633 21.5818 90.4824 21.5337L91.7576 21.4519V21.8898C91.7576 22.5395 91.1823 23.0352 90.4057 23.0352ZM90.142 23.9063C90.8276 23.9063 91.3981 23.608 91.7097 23.0834H91.7912V23.8197H92.7835V20.2391C92.7835 19.1321 92.0452 18.4776 90.7365 18.4776C89.5524 18.4776 88.7086 19.0551 88.6032 19.9551H89.6003C89.7154 19.5845 90.1133 19.3728 90.6885 19.3728C91.3933 19.3728 91.7576 19.6856 91.7576 20.2391V20.6915L90.3434 20.7733C89.1017 20.8503 88.4018 21.3941 88.4018 22.3374C88.4018 23.2951 89.1353 23.9063 90.142 23.9063Z" fill="white"/>
<path d="M96.2812 23.9063C97.0003 23.9063 97.6092 23.5646 97.9208 22.9919H98.0023V23.8197H98.9898V16.5333H97.9591V19.4113H97.8824C97.5996 18.8337 96.9955 18.492 96.2812 18.492C94.9629 18.492 94.1143 19.5412 94.1143 21.1968C94.1143 22.8572 94.9533 23.9063 96.2812 23.9063ZM96.5737 19.4209C97.4366 19.4209 97.9783 20.1091 97.9783 21.2016C97.9783 22.2989 97.4414 22.9775 96.5737 22.9775C95.7012 22.9775 95.1786 22.3085 95.1786 21.1968C95.1786 20.0947 95.706 19.4209 96.5737 19.4209Z" fill="white"/>
<path d="M105.674 23.9208C107.198 23.9208 108.133 22.8957 108.133 21.1968C108.133 19.5075 107.193 18.4776 105.674 18.4776C104.149 18.4776 103.21 19.5075 103.21 21.1968C103.21 22.8957 104.144 23.9208 105.674 23.9208ZM105.674 23.0016C104.777 23.0016 104.274 22.3422 104.274 21.1968C104.274 20.061 104.777 19.3968 105.674 19.3968C106.565 19.3968 107.074 20.061 107.074 21.1968C107.074 22.3374 106.565 23.0016 105.674 23.0016Z" fill="white"/>
<path d="M109.497 23.8197H110.528V20.754C110.528 19.9359 111.012 19.4257 111.775 19.4257C112.537 19.4257 112.901 19.8444 112.901 20.6866V23.8197H113.932V20.4268C113.932 19.1803 113.289 18.4776 112.124 18.4776C111.338 18.4776 110.82 18.8289 110.566 19.4113H110.49V18.5787H109.497V23.8197Z" fill="white"/>
<path d="M118.679 17.2744V18.6027H117.849V19.4738H118.679V22.4337C118.679 23.4443 119.134 23.8486 120.28 23.8486C120.481 23.8486 120.673 23.8245 120.841 23.7957V22.9342C120.697 22.9486 120.606 22.9582 120.448 22.9582C119.935 22.9582 119.71 22.7176 119.71 22.169V19.4738H120.841V18.6027H119.71V17.2744H118.679Z" fill="white"/>
<path d="M122.224 23.8197H123.255V20.7588C123.255 19.9647 123.725 19.4305 124.569 19.4305C125.297 19.4305 125.686 19.854 125.686 20.6915V23.8197H126.716V20.4364C126.716 19.1899 126.031 18.4824 124.919 18.4824C124.132 18.4824 123.581 18.8337 123.327 19.4209H123.246V16.5333H122.224V23.8197Z" fill="white"/>
<path d="M130.435 19.3583C131.197 19.3583 131.696 19.8925 131.719 20.7155H129.083C129.14 19.8974 129.672 19.3583 130.435 19.3583ZM131.715 22.4048C131.523 22.8139 131.096 23.0401 130.473 23.0401C129.648 23.0401 129.116 22.4577 129.083 21.5385V21.4807H132.769V21.1198C132.769 19.4738 131.892 18.4776 130.439 18.4776C128.968 18.4776 128.033 19.5412 128.033 21.216C128.033 22.8909 128.949 23.9208 130.444 23.9208C131.638 23.9208 132.472 23.3433 132.707 22.4048H131.715Z" fill="white"/>
</svg>
