<svg width="172" height="66" viewBox="0 0 172 66" fill="none" xmlns="http://www.w3.org/2000/svg">
<rect x="0.509766" y="0.5" width="170.91" height="64.3279" rx="12.5" fill="#090909" stroke="#A6A6A6"/>
<g filter="url(#filter0_ii_1_376)">
<path d="M17.9679 17.0362C17.6008 17.4263 17.3838 18.0318 17.3838 18.8158V46.827C17.3838 47.6122 17.6008 48.2164 17.9679 48.6065L18.0613 48.6977L33.6917 33.0063V32.8214V32.6364L18.0613 16.9438L17.9679 17.0362Z" fill="url(#paint0_linear_1_376)"/>
<path d="M38.9007 38.2381L33.6914 33.006V32.8211V32.6362L38.902 27.4053L39.0193 27.4724L45.1925 30.9934C46.955 31.9991 46.955 33.6443 45.1925 34.6513L39.0193 38.1723L38.9007 38.2381Z" fill="url(#paint1_linear_1_376)"/>
<g filter="url(#filter1_i_1_376)">
<path d="M39.0194 38.171L33.6903 32.821L17.9678 48.6062C18.5481 49.2242 19.5082 49.3002 20.5894 48.6847L39.0194 38.171Z" fill="url(#paint2_linear_1_376)"/>
</g>
<path d="M39.0194 27.4714L20.5894 16.9589C19.5082 16.3421 18.5481 16.4194 17.9678 17.0375L33.6915 32.8226L39.0194 27.4714Z" fill="url(#paint3_linear_1_376)"/>
</g>
<path d="M86.1575 34.3538C83.3549 34.3538 81.0707 36.4844 81.0707 39.419C81.0707 42.3357 83.3549 44.4842 86.1575 44.4842C88.9613 44.4842 91.2455 42.3357 91.2455 39.419C91.2443 36.4844 88.9601 34.3538 86.1575 34.3538ZM86.1575 42.4905C84.6216 42.4905 83.2977 41.2245 83.2977 39.4202C83.2977 37.5968 84.6228 36.3498 86.1575 36.3498C87.6934 36.3498 89.0173 37.5968 89.0173 39.4202C89.0173 41.2233 87.6934 42.4905 86.1575 42.4905ZM75.0592 34.3538C72.2566 34.3538 69.9724 36.4844 69.9724 39.419C69.9724 42.3357 72.2566 44.4842 75.0592 44.4842C77.863 44.4842 80.1472 42.3357 80.1472 39.419C80.1472 36.4844 77.863 34.3538 75.0592 34.3538ZM75.0592 42.4905C73.5233 42.4905 72.1994 41.2245 72.1994 39.4202C72.1994 37.5968 73.5245 36.3498 75.0592 36.3498C76.5951 36.3498 77.919 37.5968 77.919 39.4202C77.9202 41.2233 76.5951 42.4905 75.0592 42.4905ZM61.859 35.9092V38.0577H67.0042C66.8505 39.2665 66.4477 40.149 65.8329 40.7624C65.0845 41.5103 63.9132 42.3357 61.859 42.3357C58.6918 42.3357 56.2157 39.7834 56.2157 36.6178C56.2157 33.4522 58.6918 30.9 61.859 30.9C63.5677 30.9 64.8153 31.5717 65.7363 32.4351L67.2532 30.919C65.9663 29.6911 64.2588 28.7515 61.859 28.7515C57.5204 28.7515 53.873 32.2815 53.873 36.6178C53.873 40.9541 57.5204 44.4842 61.859 44.4842C64.2004 44.4842 65.9675 43.716 67.3485 42.2773C68.7689 40.8577 69.211 38.8616 69.211 37.2502C69.211 36.7524 69.1728 36.2915 69.0954 35.908L61.859 35.9092ZM115.847 37.5777C115.425 36.4463 114.138 34.3538 111.508 34.3538C108.897 34.3538 106.728 36.407 106.728 39.419C106.728 42.2582 108.878 44.4842 111.757 44.4842C114.08 44.4842 115.424 43.0645 115.981 42.2392L114.254 41.0875C113.678 41.9319 112.89 42.4881 111.757 42.4881C110.625 42.4881 109.819 41.97 109.3 40.9529L116.077 38.1518L115.847 37.5777ZM108.936 39.2665C108.878 37.3086 110.452 36.3117 111.586 36.3117C112.469 36.3117 113.217 36.7536 113.467 37.386L108.936 39.2665ZM103.427 44.1781H105.653V29.2898H103.427V44.1781ZM99.7784 35.4864H99.7021C99.2028 34.8909 98.2424 34.3538 97.0342 34.3538C94.4997 34.3538 92.1773 36.5797 92.1773 39.4392C92.1773 42.2785 94.4997 44.4854 97.0342 44.4854C98.2436 44.4854 99.2028 43.9482 99.7021 43.3349H99.7784V44.0638C99.7784 46.0015 98.7417 47.0376 97.0723 47.0376C95.7091 47.0376 94.8643 46.0598 94.5188 45.2345L92.5801 46.0408C93.1365 47.383 94.6141 49.0337 97.0723 49.0337C99.683 49.0337 101.891 47.4985 101.891 43.7565V34.6622H99.7796L99.7784 35.4864ZM97.226 42.4905C95.6901 42.4905 94.4044 41.2042 94.4044 39.4392C94.4044 37.654 95.6901 36.3498 97.226 36.3498C98.7417 36.3498 99.9321 37.654 99.9321 39.4392C99.9321 41.2042 98.7417 42.4905 97.226 42.4905ZM126.278 29.2898H120.95V44.1781H123.173V38.5377H126.277C128.741 38.5377 131.164 36.7548 131.164 33.9143C131.164 31.0739 128.742 29.2898 126.278 29.2898ZM126.335 36.4654H123.173V31.3621H126.335C127.997 31.3621 128.941 32.7376 128.941 33.9143C128.941 35.0672 127.997 36.4654 126.335 36.4654ZM140.076 34.3276C138.466 34.3276 136.799 35.0362 136.109 36.6071L138.083 37.4301C138.504 36.6071 139.291 36.3379 140.114 36.3379C141.264 36.3379 142.433 37.0275 142.452 38.253V38.4067C142.049 38.1768 141.187 37.8326 140.133 37.8326C138.006 37.8326 135.84 39.0009 135.84 41.184C135.84 43.1765 137.585 44.4592 139.539 44.4592C141.033 44.4592 141.858 43.7886 142.375 43.0026H142.451V44.1519H144.598V38.4436C144.599 35.802 142.624 34.3276 140.076 34.3276ZM139.807 42.4869C139.08 42.4869 138.064 42.1225 138.064 41.2221C138.064 40.0728 139.329 39.6322 140.422 39.6322C141.398 39.6322 141.859 39.843 142.452 40.13C142.279 41.5103 141.091 42.4869 139.807 42.4869ZM152.417 34.6527L149.868 41.1078H149.792L147.147 34.6527H144.752L148.719 43.6743L146.457 48.6931H148.776L154.89 34.6527H152.417ZM132.392 44.1781H134.614V29.2898H132.392V44.1781Z" fill="white"/>
<path d="M61.581 20.4834C61.581 21.4634 61.2857 22.2433 60.6941 22.8257C60.0226 23.518 59.1464 23.8641 58.0702 23.8641C57.0392 23.8641 56.1618 23.5133 55.4415 22.8117C54.7201 22.1089 54.3594 21.2388 54.3594 20.2004C54.3594 19.1608 54.7201 18.2908 55.4415 17.5892C56.1618 16.8864 57.0392 16.5355 58.0702 16.5355C58.5821 16.5355 59.0714 16.6338 59.5357 16.8291C60.0012 17.0255 60.3738 17.2863 60.6524 17.6126L60.025 18.23C59.5524 17.6745 58.9011 17.3974 58.069 17.3974C57.3166 17.3974 56.6666 17.657 56.1177 18.1762C55.5689 18.6954 55.2951 19.3702 55.2951 20.1993C55.2951 21.0284 55.5689 21.7031 56.1177 22.2223C56.6666 22.7415 57.3166 23.0011 58.069 23.0011C58.8666 23.0011 59.5321 22.7403 60.0643 22.2176C60.4095 21.8773 60.6095 21.4037 60.6631 20.7968H58.069V19.9537H61.5298C61.5655 20.1373 61.581 20.3139 61.581 20.4834Z" fill="white"/>
<path d="M67.0693 17.553H63.8169V19.7772H66.7503V20.6203H63.8169V22.8445H67.0693V23.7075H62.899V16.6911H67.0693V17.553Z" fill="white"/>
<path d="M70.9395 23.7075H70.0216V17.553H68.0264V16.6911H72.9348V17.553H70.9395V23.7075Z" fill="white"/>
<path d="M76.486 23.7075V16.6911H77.4039V23.7075H76.486Z" fill="white"/>
<path d="M81.4744 23.7075H80.5566V17.553H78.5613V16.6911H83.4697V17.553H81.4744V23.7075Z" fill="white"/>
<path d="M92.7614 22.8012C92.059 23.5099 91.1863 23.8642 90.1422 23.8642C89.0982 23.8642 88.2255 23.5099 87.5243 22.8012C86.8219 22.0926 86.4719 21.2249 86.4719 20.1993C86.4719 19.1738 86.8219 18.3061 87.5243 17.5974C88.2255 16.8888 89.0982 16.5333 90.1422 16.5333C91.1804 16.5333 92.0518 16.8899 92.7566 17.6021C93.4614 18.3142 93.8138 19.1796 93.8138 20.1993C93.8138 21.2249 93.4626 22.0926 92.7614 22.8012ZM88.2017 22.213C88.7303 22.7392 89.3768 23.0012 90.1422 23.0012C90.9077 23.0012 91.5554 22.7381 92.0828 22.213C92.6114 21.6868 92.8768 21.0155 92.8768 20.1993C92.8768 19.3831 92.6114 18.7118 92.0828 18.1856C91.5554 17.6594 90.9077 17.3974 90.1422 17.3974C89.3768 17.3974 88.7303 17.6606 88.2017 18.1856C87.6743 18.7118 87.4088 19.3831 87.4088 20.1993C87.4088 21.0155 87.6743 21.6868 88.2017 22.213Z" fill="white"/>
<path d="M95.1019 23.7075V16.6911H96.2186L99.6901 22.1487H99.7294L99.6901 20.7969V16.6911H100.608V23.7075H99.6496L96.0174 17.9845H95.9781L96.0174 19.3363V23.7075H95.1019Z" fill="white"/>
<path d="M61.581 20.4834C61.581 21.4634 61.2857 22.2433 60.6941 22.8257C60.0226 23.518 59.1464 23.8641 58.0702 23.8641C57.0392 23.8641 56.1618 23.5133 55.4415 22.8117C54.7201 22.1089 54.3594 21.2388 54.3594 20.2004C54.3594 19.1608 54.7201 18.2908 55.4415 17.5892C56.1618 16.8864 57.0392 16.5355 58.0702 16.5355C58.5821 16.5355 59.0714 16.6338 59.5357 16.8291C60.0012 17.0255 60.3738 17.2863 60.6524 17.6126L60.025 18.23C59.5524 17.6745 58.9011 17.3974 58.069 17.3974C57.3166 17.3974 56.6666 17.657 56.1177 18.1762C55.5689 18.6954 55.2951 19.3702 55.2951 20.1993C55.2951 21.0284 55.5689 21.7031 56.1177 22.2223C56.6666 22.7415 57.3166 23.0011 58.069 23.0011C58.8666 23.0011 59.5321 22.7403 60.0643 22.2176C60.4095 21.8773 60.6095 21.4037 60.6631 20.7968H58.069V19.9537H61.5298C61.5655 20.1373 61.581 20.3139 61.581 20.4834Z" stroke="white" stroke-width="0.204511" stroke-miterlimit="10"/>
<path d="M67.0693 17.553H63.8169V19.7772H66.7503V20.6203H63.8169V22.8445H67.0693V23.7075H62.899V16.6911H67.0693V17.553Z" stroke="white" stroke-width="0.204511" stroke-miterlimit="10"/>
<path d="M70.9395 23.7075H70.0216V17.553H68.0264V16.6911H72.9348V17.553H70.9395V23.7075Z" stroke="white" stroke-width="0.204511" stroke-miterlimit="10"/>
<path d="M76.486 23.7075V16.6911H77.4039V23.7075H76.486Z" stroke="white" stroke-width="0.204511" stroke-miterlimit="10"/>
<path d="M81.4744 23.7075H80.5566V17.553H78.5613V16.6911H83.4697V17.553H81.4744V23.7075Z" stroke="white" stroke-width="0.204511" stroke-miterlimit="10"/>
<path d="M92.7614 22.8012C92.059 23.5099 91.1863 23.8642 90.1422 23.8642C89.0982 23.8642 88.2255 23.5099 87.5243 22.8012C86.8219 22.0926 86.4719 21.2249 86.4719 20.1993C86.4719 19.1738 86.8219 18.3061 87.5243 17.5974C88.2255 16.8888 89.0982 16.5333 90.1422 16.5333C91.1804 16.5333 92.0518 16.8899 92.7566 17.6021C93.4614 18.3142 93.8138 19.1796 93.8138 20.1993C93.8138 21.2249 93.4626 22.0926 92.7614 22.8012ZM88.2017 22.213C88.7303 22.7392 89.3768 23.0012 90.1422 23.0012C90.9077 23.0012 91.5554 22.7381 92.0828 22.213C92.6114 21.6868 92.8768 21.0155 92.8768 20.1993C92.8768 19.3831 92.6114 18.7118 92.0828 18.1856C91.5554 17.6594 90.9077 17.3974 90.1422 17.3974C89.3768 17.3974 88.7303 17.6606 88.2017 18.1856C87.6743 18.7118 87.4088 19.3831 87.4088 20.1993C87.4088 21.0155 87.6743 21.6868 88.2017 22.213Z" stroke="white" stroke-width="0.204511" stroke-miterlimit="10"/>
<path d="M95.1019 23.7075V16.6911H96.2186L99.6901 22.1487H99.7294L99.6901 20.7969V16.6911H100.608V23.7075H99.6496L96.0174 17.9845H95.9781L96.0174 19.3363V23.7075H95.1019Z" stroke="white" stroke-width="0.204511" stroke-miterlimit="10"/>
<defs>
<filter id="filter0_ii_1_376" x="17.3838" y="16.5333" width="29.1309" height="32.5766" filterUnits="userSpaceOnUse" color-interpolation-filters="sRGB">
<feFlood flood-opacity="0" result="BackgroundImageFix"/>
<feBlend mode="normal" in="SourceGraphic" in2="BackgroundImageFix" result="shape"/>
<feColorMatrix in="SourceAlpha" type="matrix" values="0 0 0 0 0 0 0 0 0 0 0 0 0 0 0 0 0 0 127 0" result="hardAlpha"/>
<feOffset dy="-0.795"/>
<feComposite in2="hardAlpha" operator="arithmetic" k2="-1" k3="1"/>
<feColorMatrix type="matrix" values="0 0 0 0 0 0 0 0 0 0 0 0 0 0 0 0 0 0 0.12 0"/>
<feBlend mode="normal" in2="shape" result="effect1_innerShadow_1_376"/>
<feColorMatrix in="SourceAlpha" type="matrix" values="0 0 0 0 0 0 0 0 0 0 0 0 0 0 0 0 0 0 127 0" result="hardAlpha"/>
<feOffset dy="0.795"/>
<feComposite in2="hardAlpha" operator="arithmetic" k2="-1" k3="1"/>
<feColorMatrix type="matrix" values="0 0 0 0 1 0 0 0 0 1 0 0 0 0 1 0 0 0 0.25 0"/>
<feBlend mode="normal" in2="effect1_innerShadow_1_376" result="effect2_innerShadow_1_376"/>
</filter>
<filter id="filter1_i_1_376" x="17.9678" y="32.821" width="21.0518" height="16.2888" filterUnits="userSpaceOnUse" color-interpolation-filters="sRGB">
<feFlood flood-opacity="0" result="BackgroundImageFix"/>
<feBlend mode="normal" in="SourceGraphic" in2="BackgroundImageFix" result="shape"/>
<feColorMatrix in="SourceAlpha" type="matrix" values="0 0 0 0 0 0 0 0 0 0 0 0 0 0 0 0 0 0 127 0" result="hardAlpha"/>
<feOffset dy="-0.795"/>
<feComposite in2="hardAlpha" operator="arithmetic" k2="-1" k3="1"/>
<feColorMatrix type="matrix" values="0 0 0 0 0 0 0 0 0 0 0 0 0 0 0 0 0 0 0.08 0"/>
<feBlend mode="normal" in2="shape" result="effect1_innerShadow_1_376"/>
</filter>
<linearGradient id="paint0_linear_1_376" x1="32.3061" y1="18.5194" x2="11.0509" y2="39.692" gradientUnits="userSpaceOnUse">
<stop stop-color="#00A0FF"/>
<stop offset="0.0066" stop-color="#00A1FF"/>
<stop offset="0.2601" stop-color="#00BEFF"/>
<stop offset="0.5122" stop-color="#00D2FF"/>
<stop offset="0.7604" stop-color="#00DFFF"/>
<stop offset="1" stop-color="#00E3FF"/>
</linearGradient>
<linearGradient id="paint1_linear_1_376" x1="47.4867" y1="32.8211" x2="16.9604" y2="32.8211" gradientUnits="userSpaceOnUse">
<stop stop-color="#FFE000"/>
<stop offset="0.4087" stop-color="#FFBD00"/>
<stop offset="0.7754" stop-color="#FFA500"/>
<stop offset="1" stop-color="#FF9C00"/>
</linearGradient>
<linearGradient id="paint2_linear_1_376" x1="36.1253" y1="35.7264" x2="7.30059" y2="64.4391" gradientUnits="userSpaceOnUse">
<stop stop-color="#FF3A44"/>
<stop offset="1" stop-color="#C31162"/>
</linearGradient>
<linearGradient id="paint3_linear_1_376" x1="14.008" y1="7.71279" x2="26.8791" y2="20.5338" gradientUnits="userSpaceOnUse">
<stop stop-color="#32A071"/>
<stop offset="0.0685" stop-color="#2DA771"/>
<stop offset="0.4762" stop-color="#15CF74"/>
<stop offset="0.8009" stop-color="#06E775"/>
<stop offset="1" stop-color="#00F076"/>
</linearGradient>
</defs>
</svg>
