<svg width="169" height="66" viewBox="0 0 169 66" fill="none" xmlns="http://www.w3.org/2000/svg">
<rect x="0.506836" y="0.5" width="167.086" height="64.3279" rx="12.5" fill="#090909" stroke="#A6A6A6"/>
<g clip-path="url(#clip0_1_452)">
<path d="M31.1062 39.8543C28.8277 39.8543 26.9842 37.9378 26.9842 35.5549C26.9842 33.217 28.8277 31.2718 31.1062 31.2718C32.6204 31.2718 34.1347 31.9816 34.779 33.2784C34.8237 33.3684 34.8827 33.4891 34.8827 33.6404V37.4408C34.8827 37.5164 34.8379 37.6821 34.8074 37.7271C34.1041 39.0239 32.6651 39.8543 31.1062 39.8543ZM38.5859 43.127V28.0442H34.8827V29.3103C33.8481 28.2999 32.4396 27.7435 30.7017 27.7435C26.4598 27.7435 23.2383 31.2125 23.2383 35.5549C23.2383 39.9157 26.4598 43.4297 30.7017 43.4297C32.4396 43.4297 33.8481 42.8406 34.8827 41.8302V43.127H38.5859ZM54.6673 43.127V34.9679C54.6673 30.9548 51.5657 27.7435 47.6084 27.7435C43.6368 27.7435 40.5493 30.9548 40.5493 34.9679V43.127H44.2505V34.9679C44.2505 32.992 45.6307 31.4825 47.6084 31.4825C49.5718 31.4825 50.9661 32.992 50.9661 34.9679V43.127H54.6673ZM64.08 39.8543C61.8016 39.8543 59.958 37.9378 59.958 35.5549C59.958 33.217 61.8016 31.2718 64.08 31.2718C65.5943 31.2718 67.0333 32.0266 67.7528 33.2784C67.7976 33.3684 67.8564 33.4891 67.8564 33.6404V37.4571C67.8564 37.5328 67.8117 37.6821 67.7832 37.7271C67.0779 39.0239 65.639 39.8543 64.08 39.8543ZM71.5598 43.127V23.5198H67.8564V29.3103C66.8239 28.2999 65.4133 27.6965 63.6755 27.6965C59.4336 27.6965 56.212 31.2125 56.212 35.5549C56.212 39.9157 59.4336 43.4297 63.6755 43.4297C65.4133 43.4297 66.8239 42.8406 67.8564 41.8302V43.127H71.5598ZM77.2244 43.127V35.0722C77.2244 32.6893 78.4683 31.4232 80.8362 31.4232V27.7435C76.0699 27.7435 73.5232 30.2921 73.5232 35.0722V43.127H77.2244ZM88.9298 39.6744C86.6819 39.6744 84.8546 37.8335 84.8546 35.5549C84.8546 33.2927 86.6819 31.4539 88.9298 31.4539C91.2083 31.4539 93.0233 33.2927 93.0233 35.5549C93.0233 37.8335 91.2083 39.6744 88.9298 39.6744ZM88.9298 43.4297C93.2632 43.4297 96.7693 39.9157 96.7693 35.5549C96.7693 31.2125 93.2632 27.7435 88.9298 27.7435C84.6148 27.7435 81.1066 31.2125 81.1066 35.5549C81.1066 39.9157 84.6148 43.4297 88.9298 43.4297ZM100.306 26.8988C101.491 26.8988 102.45 25.917 102.45 24.7266C102.45 23.5198 101.491 22.5543 100.306 22.5543C99.123 22.5543 98.1636 23.5198 98.1636 24.7266C98.1636 25.917 99.123 26.8988 100.306 26.8988ZM102.149 28.0442H98.4461V43.127H102.149V28.0442ZM111.698 39.8543C109.42 39.8543 107.576 37.9378 107.576 35.5549C107.576 33.217 109.42 31.2718 111.698 31.2718C113.212 31.2718 114.65 32.0266 115.369 33.2784C115.416 33.3684 115.475 33.4891 115.475 33.6404V37.4714C115.475 37.5471 115.43 37.6821 115.399 37.7271C114.696 39.0239 113.257 39.8543 111.698 39.8543ZM119.176 43.127V23.5198H115.475V29.3103C114.44 28.2999 113.032 27.7435 111.294 27.7435C107.052 27.7435 103.828 31.2125 103.828 35.5549C103.828 39.9157 107.052 43.444 111.294 43.444C113.032 43.444 114.44 42.8406 115.475 41.8302V43.127H119.176Z" fill="#77C159"/>
<path d="M138.691 43.1276L144.777 28.0284H141.72L136.742 41.121H137.777L132.787 28.0448H129.638L135.724 43.1276H138.691ZM128.905 43.3076L128.919 40.624H128.589C126.417 40.624 124.886 39.3109 124.886 37.0936V30.534H128.799V28.0448H124.886V23.956H122.175V37.0936C122.175 41.0004 124.693 43.3076 128.589 43.3076H128.905Z" fill="#868686"/>
</g>
<defs>
<clipPath id="clip0_1_452">
<rect width="158" height="26" fill="white" transform="translate(5.00684 23)"/>
</clipPath>
</defs>
</svg>
