<svg width="247" height="63" viewBox="0 0 247 63" fill="none" xmlns="http://www.w3.org/2000/svg">
<g clip-path="url(#clip0_1_410)">
<path d="M230.99 8.26797e-05H15.0326C14.4547 8.26797e-05 13.8838 8.26798e-05 13.3074 0.00323268C12.825 0.00638268 12.3463 0.0155334 11.8592 0.0232352C10.801 0.0356805 9.74532 0.128723 8.70127 0.301553C7.65869 0.478147 6.64877 0.811075 5.70566 1.28908C4.76371 1.77113 3.90302 2.3975 3.15482 3.14547C2.40269 3.89134 1.77573 4.75346 1.29806 5.69868C0.819059 6.64203 0.486921 7.65291 0.313114 8.69641C0.137653 9.7386 0.0432368 10.7928 0.0307109 11.8496C0.0160865 12.3325 0.0145421 12.817 0.00683594 13.2999V49.7049C0.0145421 50.1939 0.0160865 50.6677 0.0306952 51.1569C0.0432249 52.2136 0.137642 53.2677 0.313098 54.3099C0.486425 55.354 0.818583 56.3654 1.29804 57.3091C1.77551 58.2513 2.40256 59.1099 3.15482 59.8517C3.90019 60.603 4.76143 61.2297 5.70566 61.7081C6.64876 62.1874 7.65858 62.5223 8.70127 62.7016C9.7455 62.8731 10.8011 62.9661 11.8592 62.9801C12.3463 62.9908 12.825 62.9969 13.3074 62.9969C13.8838 63.0001 14.4548 63.0001 15.0326 63.0001H230.99C231.556 63.0001 232.131 63.0001 232.698 62.9969C233.178 62.9969 233.67 62.9908 234.151 62.9801C235.207 62.9669 236.26 62.8738 237.302 62.7016C238.349 62.521 239.362 62.1862 240.31 61.7081C241.253 61.2295 242.113 60.6027 242.858 59.8517C243.608 59.107 244.237 58.249 244.72 57.3091C245.196 56.3647 245.525 55.3534 245.696 54.3099C245.872 53.2676 245.969 52.2137 245.988 51.1569C245.995 50.6677 245.995 50.1939 245.995 49.7049C246.007 49.1327 246.007 48.5636 246.007 47.9821V15.0195C246.007 14.4427 246.007 13.8705 245.995 13.2999C245.995 12.817 245.995 12.3325 245.988 11.8495C245.969 10.7926 245.872 9.73868 245.696 8.69635C245.525 7.65345 245.196 6.64265 244.72 5.69862C243.747 3.80402 242.205 2.26182 240.31 1.28894C239.362 0.812101 238.348 0.479261 237.302 0.301412C236.261 0.12782 235.207 0.0347449 234.151 0.0230147C233.67 0.0153287 233.178 0.00609918 232.698 0.00302793C232.131 -0.00012207 231.556 -0.00012207 230.99 -0.00012207V8.26797e-05Z" fill="#A6A6A6"/>
<path d="M13.3153 61.6219C12.8352 61.6219 12.3665 61.6157 11.8902 61.605C10.9034 61.5922 9.91881 61.5063 8.94463 61.3481C8.03626 61.1918 7.1563 60.9009 6.33376 60.4852C5.51877 60.0729 4.77543 59.5323 4.13222 58.884C3.4797 58.2435 2.93645 57.5005 2.52399 56.6846C2.10699 55.8633 1.8184 54.9831 1.66827 54.0745C1.50615 53.0981 1.41843 52.1109 1.40588 51.1213C1.39589 50.7892 1.38281 49.6832 1.38281 49.6832V13.2998C1.38281 13.2998 1.39674 12.2109 1.40596 11.8909C1.41798 10.9029 1.50518 9.91722 1.66682 8.94241C1.81723 8.03131 2.10604 7.14852 2.52327 6.3246C2.93421 5.50925 3.47444 4.76572 4.12303 4.12283C4.77089 3.47384 5.51661 2.93044 6.33299 2.51244C7.15364 2.09804 8.03194 1.80924 8.93847 1.65574C9.91584 1.49598 10.9038 1.40961 11.8941 1.39734L13.3161 1.37811H232.69L234.129 1.39812C235.11 1.40977 236.089 1.49537 237.058 1.65419C237.974 1.80962 238.861 2.10043 239.691 2.51706C241.327 3.35944 242.657 4.69217 243.497 6.32845C243.907 7.14667 244.192 8.02226 244.34 8.9255C244.504 9.9083 244.595 10.9017 244.614 11.8979C244.619 12.3439 244.619 12.823 244.619 13.2998C244.631 13.8904 244.631 14.4526 244.631 15.0194V47.982C244.631 48.5542 244.631 49.1126 244.619 49.6755C244.619 50.1877 244.619 50.6569 244.613 51.1398C244.594 52.1181 244.504 53.0938 244.343 54.059C244.196 54.9742 243.909 55.8613 243.492 56.6893C243.077 57.4963 242.537 58.2329 241.892 58.8718C241.248 59.5235 240.503 60.0673 239.686 60.4822C238.859 60.9011 237.973 61.1931 237.058 61.3481C236.084 61.5071 235.099 61.593 234.112 61.605C233.651 61.6157 233.167 61.6219 232.698 61.6219L230.99 61.625L13.3153 61.6219Z" fill="black"/>
<path d="M72.733 48.0314V33.6364H72.6375L66.7387 47.8822H64.4871L58.5729 33.6364H58.479V48.0314H55.7119V28.473H59.2254L65.5582 43.9108H65.666L71.9865 28.473H75.5123V48.0314L72.733 48.0314Z" fill="white"/>
<path d="M77.8496 43.9785C77.8496 41.4853 79.761 39.9795 83.1529 39.7764L87.0588 39.5595V38.4752C87.0588 36.8894 86.0138 35.9942 84.2364 35.9942C83.578 35.9067 82.9103 36.0624 82.3587 36.4319C81.807 36.8015 81.4092 37.3596 81.24 38.0014H78.5006C78.5822 35.4252 80.983 33.5964 84.3179 33.5964C87.7222 33.5964 89.9737 35.4528 89.9737 38.2584V48.0314H87.1666V45.6858H87.0988C86.6493 46.4811 85.9941 47.1411 85.202 47.5968C84.4098 48.0524 83.5097 48.287 82.5958 48.2759C81.9956 48.3346 81.3897 48.2672 80.8171 48.078C80.2444 47.8888 79.7177 47.582 79.2708 47.1773C78.8238 46.7726 78.4665 46.279 78.2218 45.7281C77.977 45.1772 77.8502 44.5813 77.8496 43.9785ZM87.0588 42.6911V41.5929L83.5454 41.8098C81.7955 41.919 80.806 42.6773 80.806 43.897C80.806 45.1444 81.8371 45.958 83.4099 45.958C83.8654 45.9889 84.3225 45.9284 84.7543 45.7799C85.186 45.6314 85.5836 45.3981 85.9237 45.0936C86.2638 44.7892 86.5394 44.4197 86.7344 44.0071C86.9293 43.5945 87.0396 43.1471 87.0588 42.6911H87.0588Z" fill="white"/>
<path d="M102.272 38.6783C102.144 37.8983 101.727 37.1949 101.104 36.7079C100.481 36.221 99.6978 35.986 98.9095 36.0497C96.6579 36.0497 95.1667 37.9338 95.1667 40.9023C95.1667 43.9385 96.6718 45.7673 98.9356 45.7673C99.7135 45.8452 100.492 45.6235 101.112 45.1477C101.732 44.6718 102.147 43.9775 102.272 43.2064H105.093C104.917 44.6809 104.173 46.0288 103.018 46.963C101.863 47.8972 100.389 48.344 98.9095 48.2083C94.8405 48.2083 92.1826 45.4289 92.1826 40.9023C92.1826 36.4696 94.8404 33.5964 98.8818 33.5964C100.372 33.4701 101.853 33.9308 103.009 34.8801C104.164 35.8295 104.903 37.1924 105.067 38.6783H102.272Z" fill="white"/>
<path d="M124.124 42.745H116.665L114.873 48.0314H111.714L118.779 28.473H122.062L129.127 48.0314H125.914L124.124 42.745ZM117.437 40.3056H123.35L120.435 31.7261H120.354L117.437 40.3056Z" fill="white"/>
<path d="M144.386 40.9023C144.386 45.3336 142.013 48.1806 138.432 48.1806C137.525 48.228 136.622 48.0191 135.829 47.5779C135.035 47.1367 134.381 46.481 133.943 45.6858H133.875V52.7487H130.946V33.7718H133.781V36.1435H133.835C134.293 35.3521 134.958 34.6998 135.758 34.2558C136.558 33.8119 137.463 33.5931 138.378 33.6226C141.999 33.6226 144.386 36.4834 144.386 40.9023ZM141.376 40.9023C141.376 38.0154 139.883 36.1173 137.605 36.1173C135.368 36.1173 133.863 38.0553 133.863 40.9023C133.863 43.7755 135.368 45.6996 137.605 45.6996C139.883 45.6996 141.376 43.8155 141.376 40.9023Z" fill="white"/>
<path d="M160.089 40.9023C160.089 45.3336 157.716 48.1806 154.135 48.1806C153.228 48.228 152.326 48.0191 151.532 47.5779C150.738 47.1367 150.084 46.4809 149.646 45.6858H149.578V52.7487H146.649V33.7718H149.484V36.1435H149.538C149.997 35.3521 150.661 34.6998 151.461 34.2559C152.261 33.8119 153.167 33.5931 154.081 33.6226C157.702 33.6226 160.089 36.4834 160.089 40.9023ZM157.079 40.9023C157.079 38.0154 155.586 36.1173 153.309 36.1173C151.071 36.1173 149.566 38.0553 149.566 40.9023C149.566 43.7755 151.071 45.6996 153.309 45.6996C155.586 45.6996 157.079 43.8155 157.079 40.9023H157.079Z" fill="white"/>
<path d="M170.469 42.5819C170.686 44.5215 172.571 45.7949 175.147 45.7949C177.616 45.7949 179.392 44.5214 179.392 42.7726C179.392 41.2545 178.32 40.3455 175.784 39.7226L173.248 39.1119C169.655 38.2445 167.986 36.5649 167.986 33.8394C167.986 30.4648 170.929 28.1469 175.107 28.1469C179.242 28.1469 182.077 30.4648 182.173 33.8394H179.216C179.039 31.8875 177.425 30.7094 175.066 30.7094C172.706 30.7094 171.092 31.9014 171.092 33.6364C171.092 35.0191 172.123 35.8327 174.645 36.4556L176.801 36.9847C180.817 37.9337 182.485 39.5457 182.485 42.4065C182.485 46.0656 179.569 48.3573 174.93 48.3573C170.59 48.3573 167.66 46.1194 167.471 42.5818L170.469 42.5819Z" fill="white"/>
<path d="M188.805 30.3972V33.7718H191.518V36.0897H188.805V43.9508C188.805 45.1721 189.348 45.7412 190.541 45.7412C190.863 45.7356 191.185 45.7129 191.505 45.6734V47.9775C190.968 48.0776 190.423 48.123 189.878 48.1128C186.989 48.1128 185.863 47.0285 185.863 44.263V36.0897H183.788V33.7718H185.863V30.3972H188.805Z" fill="white"/>
<path d="M193.088 40.9023C193.088 36.4157 195.732 33.5964 199.855 33.5964C203.992 33.5964 206.623 36.4157 206.623 40.9023C206.623 45.4012 204.005 48.2082 199.855 48.2082C195.706 48.2082 193.088 45.4012 193.088 40.9023ZM203.639 40.9023C203.639 37.8246 202.228 36.0082 199.855 36.0082C197.482 36.0082 196.07 37.8385 196.07 40.9023C196.07 43.9923 197.482 45.795 199.855 45.795C202.228 45.795 203.639 43.9923 203.639 40.9023H203.639Z" fill="white"/>
<path d="M209.04 33.7718H211.833V36.1988H211.901C212.09 35.4408 212.534 34.7709 213.159 34.3017C213.784 33.8326 214.552 33.5927 215.333 33.6225C215.67 33.6214 216.007 33.658 216.336 33.7317V36.4695C215.91 36.3394 215.466 36.2797 215.02 36.2927C214.595 36.2754 214.171 36.3504 213.777 36.5124C213.383 36.6745 213.029 36.9198 212.739 37.2314C212.45 37.5431 212.231 37.9138 212.097 38.3181C211.964 38.7223 211.921 39.1506 211.969 39.5734V48.0313H209.04V33.7718Z" fill="white"/>
<path d="M229.837 43.8432C229.443 46.4318 226.921 48.2082 223.694 48.2082C219.543 48.2082 216.967 45.4289 216.967 40.97C216.967 36.4973 219.557 33.5964 223.571 33.5964C227.518 33.5964 230 36.3065 230 40.6301V41.6329H219.923V41.8098C219.877 42.3346 219.942 42.8633 220.116 43.3607C220.29 43.8582 220.567 44.313 220.93 44.695C221.293 45.077 221.733 45.3775 222.222 45.5764C222.71 45.7753 223.235 45.8682 223.761 45.8488C224.453 45.9136 225.148 45.7534 225.742 45.3921C226.335 45.0307 226.796 44.4875 227.056 43.8431L229.837 43.8432ZM219.937 39.5873H227.07C227.096 39.1154 227.025 38.6432 226.86 38.2003C226.695 37.7574 226.44 37.3534 226.112 37.0135C225.783 36.6737 225.388 36.4054 224.95 36.2255C224.513 36.0456 224.043 35.958 223.571 35.9682C223.094 35.9653 222.621 36.0569 222.18 36.2376C221.738 36.4183 221.337 36.6846 220.999 37.0211C220.661 37.3576 220.394 37.7576 220.211 38.198C220.029 38.6385 219.936 39.1106 219.937 39.5873L219.937 39.5873Z" fill="white"/>
<path d="M59.6172 13.7513C60.2312 13.7073 60.8473 13.8 61.4211 14.0228C61.9949 14.2455 62.5121 14.5928 62.9354 15.0395C63.3587 15.4862 63.6774 16.0212 63.8688 16.606C64.0601 17.1907 64.1192 17.8106 64.0418 18.4209C64.0418 21.4233 62.4181 23.1491 59.6172 23.1491H56.2207V13.7513H59.6172ZM57.6812 21.8201H59.4541C59.8928 21.8463 60.3319 21.7744 60.7393 21.6096C61.1467 21.4448 61.5123 21.1913 61.8093 20.8676C62.1064 20.5438 62.3275 20.1579 62.4565 19.738C62.5855 19.3181 62.6192 18.8747 62.5551 18.4401C62.6145 18.0072 62.5774 17.5666 62.4464 17.1498C62.3154 16.7329 62.0938 16.3502 61.7974 16.029C61.5011 15.7078 61.1373 15.4561 60.7322 15.2919C60.327 15.1278 59.8906 15.0552 59.4541 15.0794H57.6812V21.8201Z" fill="white"/>
<path d="M65.6916 19.5998C65.647 19.1338 65.7003 18.6635 65.8482 18.2193C65.9961 17.775 66.2353 17.3665 66.5504 17.0201C66.8654 16.6736 67.2495 16.3968 67.6779 16.2073C68.1063 16.0179 68.5696 15.92 69.0381 15.92C69.5066 15.92 69.9699 16.0179 70.3983 16.2073C70.8267 16.3968 71.2108 16.6736 71.5259 17.0201C71.8409 17.3665 72.0801 17.775 72.228 18.2193C72.3759 18.6635 72.4292 19.1338 72.3846 19.5998C72.4301 20.0664 72.3773 20.5373 72.2299 20.9823C72.0824 21.4272 71.8434 21.8365 71.5282 22.1836C71.213 22.5308 70.8287 22.8082 70.3998 22.998C69.971 23.1879 69.5071 23.2859 69.0381 23.2859C68.5691 23.2859 68.1052 23.1879 67.6764 22.998C67.2476 22.8082 66.8632 22.5308 66.548 22.1836C66.2329 21.8365 65.9938 21.4272 65.8464 20.9823C65.6989 20.5373 65.6462 20.0664 65.6916 19.5998ZM70.9441 19.5998C70.9441 18.0625 70.2531 17.1635 69.0404 17.1635C67.8231 17.1635 67.1383 18.0625 67.1383 19.5999C67.1383 21.1495 67.8231 22.0416 69.0404 22.0416C70.2531 22.0415 70.9441 21.1433 70.9441 19.5998H70.9441Z" fill="white"/>
<path d="M81.2812 23.1489H79.8284L78.3618 17.9256H78.251L76.7905 23.1489H75.3515L73.3955 16.0568H74.816L76.0872 21.4685H76.1918L77.6508 16.0568H78.9943L80.4532 21.4685H80.564L81.8291 16.0568H83.2295L81.2812 23.1489Z" fill="white"/>
<path d="M84.875 16.0568H86.2231V17.1835H86.3278C86.5053 16.7788 86.8048 16.4396 87.1843 16.2131C87.5639 15.9866 88.0048 15.8841 88.4454 15.9199C88.7907 15.894 89.1374 15.946 89.4598 16.0722C89.7823 16.1983 90.0721 16.3954 90.308 16.6487C90.5439 16.902 90.7198 17.2052 90.8225 17.5356C90.9253 17.8661 90.9523 18.2154 90.9016 18.5578V23.1489H89.5012V18.9092C89.5012 17.7695 89.0056 17.2027 87.9699 17.2027C87.7355 17.1918 87.5014 17.2317 87.2839 17.3196C87.0663 17.4075 86.8703 17.5415 86.7094 17.7122C86.5485 17.8829 86.4264 18.0863 86.3515 18.3086C86.2766 18.5309 86.2506 18.7667 86.2755 19V23.149H84.875L84.875 16.0568Z" fill="white"/>
<path d="M93.1328 13.2883H94.5333V23.1489H93.1328V13.2883Z" fill="white"/>
<path d="M96.4807 19.5998C96.4361 19.1338 96.4894 18.6635 96.6373 18.2193C96.7852 17.775 97.0243 17.3665 97.3394 17.0201C97.6545 16.6736 98.0386 16.3968 98.467 16.2073C98.8954 16.0179 99.3587 15.92 99.8272 15.92C100.296 15.92 100.759 16.0179 101.187 16.2073C101.616 16.3968 102 16.6736 102.315 17.0201C102.63 17.3665 102.869 17.775 103.017 18.2193C103.165 18.6635 103.218 19.1338 103.174 19.5998C103.219 20.0664 103.166 20.5373 103.019 20.9823C102.871 21.4272 102.632 21.8365 102.317 22.1836C102.002 22.5308 101.618 22.8082 101.189 22.998C100.76 23.1879 100.296 23.2859 99.8272 23.2859C99.3581 23.2859 98.8943 23.1879 98.4655 22.998C98.0366 22.8082 97.6523 22.5308 97.3371 22.1836C97.0219 21.8365 96.7829 21.4272 96.6354 20.9823C96.4879 20.5373 96.4352 20.0664 96.4807 19.5998ZM101.733 19.5998C101.733 18.0625 101.042 17.1635 99.8295 17.1635C98.6122 17.1635 97.9274 18.0625 97.9274 19.5999C97.9274 21.1495 98.6122 22.0416 99.8295 22.0416C101.042 22.0415 101.733 21.1433 101.733 19.5998H101.733Z" fill="white"/>
<path d="M104.647 21.1433C104.647 19.8667 105.599 19.1307 107.287 19.0261L109.209 18.9154V18.3032C109.209 17.5542 108.713 17.1312 107.756 17.1312C106.974 17.1312 106.433 17.4181 106.277 17.9195H104.921C105.065 16.7013 106.211 15.92 107.821 15.92C109.6 15.92 110.603 16.8051 110.603 18.3032V23.149H109.255V22.1523H109.144C108.919 22.5098 108.604 22.8013 108.229 22.9969C107.855 23.1925 107.435 23.2853 107.013 23.2658C106.715 23.2968 106.414 23.265 106.129 23.1726C105.844 23.0801 105.582 22.9291 105.359 22.7291C105.136 22.5291 104.958 22.2847 104.835 22.0115C104.713 21.7384 104.649 21.4426 104.647 21.1433ZM109.209 20.5373V19.9444L107.476 20.0551C106.499 20.1205 106.056 20.4527 106.056 21.0779C106.056 21.7162 106.61 22.0877 107.371 22.0877C107.595 22.1103 107.82 22.0877 108.035 22.0214C108.249 21.9552 108.448 21.8465 108.619 21.7018C108.791 21.5572 108.931 21.3795 109.032 21.1795C109.134 20.9794 109.194 20.761 109.209 20.5373Z" fill="white"/>
<path d="M112.444 19.5998C112.444 17.3588 113.597 15.9392 115.39 15.9392C115.833 15.9188 116.274 16.0249 116.659 16.2453C117.044 16.4656 117.359 16.791 117.566 17.1834H117.671V13.2883H119.071V23.1489H117.729V22.0284H117.618C117.395 22.4182 117.07 22.7396 116.677 22.9577C116.284 23.1758 115.839 23.2824 115.39 23.2658C113.585 23.2659 112.444 21.8462 112.444 19.5998ZM113.891 19.5998C113.891 21.1041 114.6 22.0092 115.787 22.0092C116.967 22.0092 117.697 21.091 117.697 19.606C117.697 18.1279 116.96 17.1966 115.787 17.1966C114.608 17.1966 113.891 18.1079 113.891 19.5998H113.891Z" fill="white"/>
<path d="M124.865 19.5998C124.821 19.1337 124.874 18.6635 125.022 18.2192C125.17 17.7749 125.409 17.3664 125.724 17.02C126.039 16.6735 126.424 16.3967 126.852 16.2072C127.28 16.0178 127.744 15.9199 128.212 15.9199C128.681 15.9199 129.144 16.0178 129.573 16.2072C130.001 16.3967 130.385 16.6735 130.7 17.02C131.015 17.3664 131.255 17.7749 131.402 18.2192C131.55 18.6635 131.604 19.1337 131.559 19.5998C131.605 20.0664 131.552 20.5373 131.404 20.9823C131.257 21.4273 131.018 21.8365 130.702 22.1836C130.387 22.5308 130.003 22.8082 129.574 22.998C129.145 23.1878 128.681 23.2859 128.212 23.2859C127.743 23.2859 127.279 23.1878 126.851 22.998C126.422 22.8082 126.037 22.5308 125.722 22.1836C125.407 21.8365 125.168 21.4273 125.02 20.9823C124.873 20.5373 124.82 20.0664 124.865 19.5998ZM130.118 19.5998C130.118 18.0625 129.427 17.1635 128.214 17.1635C126.997 17.1635 126.312 18.0625 126.312 19.5999C126.312 21.1495 126.997 22.0416 128.214 22.0416C129.427 22.0416 130.118 21.1433 130.118 19.5998H130.118Z" fill="white"/>
<path d="M133.438 16.0568H134.786V17.1835H134.89C135.068 16.7788 135.367 16.4396 135.747 16.2131C136.126 15.9866 136.567 15.8841 137.008 15.9199C137.353 15.894 137.7 15.946 138.022 16.0722C138.345 16.1983 138.635 16.3954 138.871 16.6487C139.106 16.902 139.282 17.2052 139.385 17.5356C139.488 17.8661 139.515 18.2154 139.464 18.5578V23.1489H138.064V18.9092C138.064 17.7695 137.568 17.2027 136.532 17.2027C136.298 17.1918 136.064 17.2317 135.846 17.3196C135.629 17.4075 135.433 17.5415 135.272 17.7122C135.111 17.8829 134.989 18.0863 134.914 18.3086C134.839 18.5309 134.813 18.7667 134.838 19V23.149H133.438V16.0568Z" fill="white"/>
<path d="M147.378 14.2911V16.0892H148.916V17.2681H147.378V20.9149C147.378 21.6578 147.684 21.9831 148.382 21.9831C148.56 21.9825 148.738 21.9717 148.916 21.9508V23.1167C148.664 23.1616 148.409 23.1856 148.154 23.1882C146.596 23.1882 145.976 22.6406 145.976 21.2733V17.268H144.85V16.0891H145.976V14.2911H147.378Z" fill="white"/>
<path d="M150.828 13.2883H152.216V17.1966H152.327C152.513 16.7881 152.821 16.447 153.208 16.2196C153.595 15.9923 154.043 15.8898 154.491 15.9261C154.834 15.9074 155.178 15.9647 155.496 16.0939C155.815 16.2232 156.102 16.4211 156.335 16.6736C156.568 16.9262 156.743 17.2271 156.847 17.5549C156.95 17.8827 156.98 18.2293 156.935 18.5701V23.149H155.533V18.9154C155.533 17.7825 155.005 17.2088 154.015 17.2088C153.775 17.1891 153.533 17.2222 153.306 17.3057C153.079 17.3893 152.874 17.5213 152.704 17.6926C152.533 17.8639 152.403 18.0702 152.321 18.2972C152.239 18.5242 152.207 18.7664 152.229 19.0069V23.1489H150.828L150.828 13.2883Z" fill="white"/>
<path d="M165.101 21.2341C164.911 21.8822 164.498 22.4429 163.936 22.818C163.374 23.1931 162.698 23.3587 162.026 23.2859C161.559 23.2982 161.094 23.2087 160.664 23.0236C160.235 22.8385 159.851 22.5622 159.539 22.2139C159.227 21.8656 158.995 21.4537 158.858 21.0066C158.722 20.5596 158.684 20.0882 158.748 19.6252C158.686 19.1608 158.724 18.6884 158.86 18.24C158.997 17.7917 159.228 17.3778 159.538 17.0265C159.848 16.6751 160.23 16.3945 160.659 16.2036C161.087 16.0127 161.551 15.916 162.02 15.92C163.994 15.92 165.186 17.2682 165.186 19.4952V19.9836H160.175V20.0621C160.153 20.3223 160.185 20.5843 160.271 20.8312C160.356 21.0781 160.492 21.3044 160.67 21.4957C160.848 21.687 161.064 21.839 161.304 21.942C161.544 22.045 161.803 22.0967 162.065 22.0938C162.4 22.134 162.739 22.0737 163.04 21.9206C163.34 21.7675 163.588 21.5285 163.753 21.234L165.101 21.2341ZM160.175 18.9485H163.759C163.777 18.7104 163.744 18.4714 163.664 18.2466C163.584 18.0218 163.457 17.8163 163.293 17.6433C163.128 17.4702 162.929 17.3335 162.709 17.2419C162.488 17.1503 162.251 17.1058 162.012 17.1112C161.77 17.1082 161.53 17.1536 161.305 17.2449C161.081 17.3362 160.877 17.4714 160.706 17.6426C160.535 17.8138 160.399 18.0176 160.308 18.2419C160.217 18.4661 160.172 18.7064 160.175 18.9485H160.175Z" fill="white"/>
<path d="M36.2284 29.6129C36.246 28.2714 36.6089 26.9561 37.2833 25.7892C37.9578 24.6224 38.9218 23.6421 40.0858 22.9394C39.3464 21.9025 38.3709 21.0491 37.2368 20.4471C36.1027 19.8451 34.8413 19.511 33.5527 19.4715C30.804 19.1882 28.1392 21.0865 26.7385 21.0865C25.3107 21.0865 23.1541 19.4996 20.8318 19.5465C19.3297 19.5941 17.8657 20.0231 16.5826 20.7914C15.2995 21.5598 14.241 22.6414 13.5101 23.9309C10.3444 29.3128 12.7058 37.2223 15.7383 41.5725C17.2555 43.7027 19.0287 46.0822 21.3489 45.9978C23.6194 45.9054 24.4674 44.5762 27.208 44.5762C29.9232 44.5762 30.7188 45.9978 33.0861 45.9442C35.5224 45.9054 37.0574 43.8045 38.5214 41.6541C39.6115 40.1363 40.4503 38.4587 41.0068 36.6836C39.5914 36.0958 38.3835 35.1119 37.5338 33.8545C36.684 32.5971 36.23 31.122 36.2284 29.6129Z" fill="white"/>
<path d="M31.7566 16.6104C33.085 15.0446 33.7394 13.032 33.581 11C31.5515 11.2093 29.6768 12.1617 28.3305 13.6675C27.6723 14.403 27.1681 15.2588 26.8469 16.1858C26.5256 17.1129 26.3936 18.093 26.4584 19.0701C27.4735 19.0804 28.4777 18.8644 29.3955 18.4383C30.3132 18.0122 31.1205 17.3872 31.7566 16.6104Z" fill="white"/>
</g>
<defs>
<clipPath id="clip0_1_410">
<rect width="246" height="63" fill="white" transform="translate(0.00683594)"/>
</clipPath>
</defs>
</svg>
