<svg width="170" height="66" viewBox="0 0 170 66" fill="none" xmlns="http://www.w3.org/2000/svg">
<rect x="1.41992" y="0.5" width="167.086" height="64.3279" rx="12.5" fill="#090909" stroke="#A6A6A6"/>
<rect x="18.3682" y="16.7722" width="15.1062" height="15.1651" fill="#F15021"/>
<rect x="34.8477" y="16.7722" width="15.1062" height="15.1651" fill="#7EB900"/>
<rect x="18.3682" y="33.3158" width="15.1062" height="15.1651" fill="#00A3EE"/>
<rect x="34.8477" y="33.3157" width="15.1062" height="15.1651" fill="#FFB800"/>
<path d="M74.5473 47.2348H71.878V36.6975C71.878 35.8346 71.9308 34.7786 72.0363 33.5296H71.9911C71.8252 34.2411 71.6782 34.7521 71.55 35.0625L66.709 47.2348H64.8541L60.0018 35.1533C59.8661 34.7975 59.7228 34.2563 59.572 33.5296H59.5268C59.5871 34.1806 59.6172 35.2441 59.6172 36.7203V47.2348H57.1289V30.952H60.918L65.1821 41.7958C65.5063 42.6285 65.7175 43.2493 65.8155 43.658H65.872C66.151 42.8026 66.3772 42.1668 66.5507 41.7504L70.894 30.952H74.5473V47.2348Z" fill="white"/>
<path d="M79.1173 33.1662C78.6875 33.1662 78.318 33.0262 78.0088 32.7461C77.7072 32.466 77.5564 32.1102 77.5564 31.6787C77.5564 31.2472 77.7072 30.8877 78.0088 30.6C78.318 30.3124 78.6875 30.1685 79.1173 30.1685C79.5621 30.1685 79.9392 30.3124 80.2483 30.6C80.5575 30.8877 80.7121 31.2472 80.7121 31.6787C80.7121 32.0875 80.5575 32.4395 80.2483 32.7347C79.9392 33.0224 79.5621 33.1662 79.1173 33.1662ZM80.418 47.2348H77.7939V35.6075H80.418V47.2348Z" fill="white"/>
<path d="M91.6838 46.7011C90.7564 47.2386 89.6592 47.5073 88.3924 47.5073C86.6732 47.5073 85.2858 46.9698 84.2301 45.8949C83.1745 44.8124 82.6466 43.412 82.6466 41.6937C82.6466 39.7785 83.2122 38.2418 84.3432 37.0836C85.4818 35.9178 87.0012 35.335 88.9014 35.335C89.9571 35.335 90.8883 35.5204 91.6951 35.8914V38.344C90.8883 37.7384 90.0287 37.4356 89.1163 37.4356C88.0079 37.4356 87.0993 37.8141 86.3905 38.5711C85.6817 39.3205 85.3273 40.3046 85.3273 41.5233C85.3273 42.7269 85.659 43.677 86.3226 44.3734C86.9937 45.0698 87.891 45.418 89.0145 45.418C89.9571 45.418 90.8469 45.0812 91.6838 44.4075V46.7011Z" fill="white"/>
<path d="M100.552 38.1169C100.235 37.8671 99.7789 37.7422 99.1833 37.7422C98.4066 37.7422 97.7581 38.0942 97.2378 38.7982C96.7175 39.5022 96.4574 40.4598 96.4574 41.6709V47.2348H93.8333V35.6075H96.4574V38.0033H96.5026C96.759 37.1858 97.1511 36.5499 97.6789 36.0957C98.2143 35.634 98.81 35.4031 99.466 35.4031C99.9411 35.4031 100.303 35.475 100.552 35.6188V38.1169Z" fill="white"/>
<path d="M107.079 47.5073C105.291 47.5073 103.863 46.9661 102.792 45.8836C101.729 44.7935 101.197 43.3515 101.197 41.5574C101.197 39.6044 101.751 38.079 102.86 36.9814C103.976 35.8838 105.476 35.335 107.361 35.335C109.171 35.335 110.581 35.8686 111.591 36.936C112.602 38.0033 113.107 39.4833 113.107 41.3757C113.107 43.2303 112.56 44.7178 111.467 45.8382C110.381 46.9509 108.918 47.5073 107.079 47.5073ZM107.203 37.4356C106.177 37.4356 105.367 37.7952 104.771 38.5143C104.175 39.2334 103.878 40.2251 103.878 41.4893C103.878 42.708 104.179 43.6694 104.782 44.3734C105.386 45.0698 106.193 45.418 107.203 45.418C108.236 45.418 109.028 45.0736 109.578 44.3847C110.136 43.6959 110.415 42.7156 110.415 41.4438C110.415 40.1645 110.136 39.1767 109.578 38.4802C109.028 37.7838 108.236 37.4356 107.203 37.4356Z" fill="white"/>
<path d="M114.601 46.8714V44.4302C115.581 45.1796 116.663 45.5543 117.847 45.5543C119.43 45.5543 120.222 45.085 120.222 44.1463C120.222 43.8813 120.154 43.658 120.018 43.4764C119.883 43.2871 119.698 43.1206 119.464 42.9767C119.238 42.8329 118.966 42.7042 118.65 42.5907C118.341 42.4771 117.994 42.3484 117.609 42.2046C117.134 42.0154 116.704 41.8148 116.32 41.6028C115.943 41.3909 115.626 41.1524 115.37 40.8875C115.121 40.6149 114.932 40.3084 114.804 39.9677C114.676 39.6271 114.612 39.2297 114.612 38.7755C114.612 38.2153 114.744 37.7233 115.008 37.2993C115.272 36.8679 115.626 36.5083 116.071 36.2206C116.516 35.9254 117.021 35.7059 117.587 35.5621C118.152 35.4107 118.736 35.335 119.34 35.335C120.41 35.335 121.368 35.4977 122.213 35.8232V38.1282C121.398 37.5681 120.463 37.288 119.408 37.288C119.076 37.288 118.774 37.3221 118.503 37.3902C118.239 37.4583 118.013 37.5529 117.824 37.6741C117.636 37.7952 117.489 37.9428 117.383 38.1169C117.277 38.2834 117.225 38.4689 117.225 38.6733C117.225 38.9231 117.277 39.135 117.383 39.3091C117.489 39.4833 117.643 39.6384 117.847 39.7747C118.058 39.9034 118.307 40.0245 118.593 40.138C118.887 40.244 119.223 40.3614 119.6 40.49C120.098 40.6944 120.542 40.9026 120.935 41.1146C121.334 41.3265 121.673 41.5688 121.952 41.8413C122.231 42.1062 122.446 42.4166 122.597 42.7724C122.748 43.1206 122.823 43.5369 122.823 44.0214C122.823 44.6118 122.688 45.1266 122.416 45.5656C122.145 46.0047 121.783 46.368 121.33 46.6557C120.878 46.9434 120.354 47.1553 119.758 47.2916C119.17 47.4354 118.548 47.5073 117.892 47.5073C116.625 47.5073 115.528 47.2954 114.601 46.8714Z" fill="white"/>
<path d="M129.995 47.5073C128.208 47.5073 126.779 46.9661 125.708 45.8836C124.645 44.7935 124.113 43.3515 124.113 41.5574C124.113 39.6044 124.668 38.079 125.776 36.9814C126.892 35.8838 128.392 35.335 130.278 35.335C132.087 35.335 133.497 35.8686 134.508 36.936C135.518 38.0033 136.023 39.4833 136.023 41.3757C136.023 43.2303 135.477 44.7178 134.383 45.8382C133.298 46.9509 131.835 47.5073 129.995 47.5073ZM130.119 37.4356C129.094 37.4356 128.283 37.7952 127.687 38.5143C127.092 39.2334 126.794 40.2251 126.794 41.4893C126.794 42.708 127.096 43.6694 127.699 44.3734C128.302 45.0698 129.109 45.418 130.119 45.418C131.152 45.418 131.944 45.0736 132.494 44.3847C133.052 43.6959 133.331 42.7156 133.331 41.4438C133.331 40.1645 133.052 39.1767 132.494 38.4802C131.944 37.7838 131.152 37.4356 130.119 37.4356Z" fill="white"/>
<path d="M144.79 32.167C144.435 31.9626 144.032 31.8604 143.579 31.8604C142.305 31.8604 141.668 32.5833 141.668 34.0292V35.6075H144.36V37.6741H141.679V47.2348H139.055V37.6741H137.076V35.6075H139.055V33.7226C139.055 32.4963 139.455 31.5311 140.254 30.8271C141.053 30.1155 142.052 29.7598 143.251 29.7598C143.9 29.7598 144.413 29.8317 144.79 29.9755V32.167Z" fill="white"/>
<path d="M151.871 47.1099C151.358 47.3673 150.683 47.496 149.846 47.496C147.599 47.496 146.475 46.4135 146.475 44.2485V37.6741H144.541V35.6075H146.475V32.9164L149.099 32.167V35.6075H151.871V37.6741H149.099V43.4877C149.099 44.1766 149.224 44.6686 149.473 44.9638C149.721 45.2591 150.136 45.4067 150.717 45.4067C151.162 45.4067 151.546 45.278 151.871 45.0206V47.1099Z" fill="white"/>
<path d="M62.9407 24.4317C62.224 24.8236 61.4258 25.0195 60.5459 25.0195C59.5285 25.0195 58.7046 24.7016 58.0743 24.0656C57.4441 23.4296 57.1289 22.5881 57.1289 21.541C57.1289 20.4714 57.4728 19.5946 58.1607 18.9104C58.8518 18.2231 59.7285 17.8794 60.7907 17.8794C61.5554 17.8794 62.1984 17.9918 62.72 18.2166V19.397C62.192 19.0437 61.5634 18.8671 60.8339 18.8671C60.1012 18.8671 59.4997 19.1096 59.0294 19.5946C58.5623 20.0796 58.3287 20.7075 58.3287 21.4784C58.3287 22.2717 58.5303 22.8964 58.9334 23.3525C59.3365 23.8054 59.8836 24.0319 60.5747 24.0319C61.0482 24.0319 61.4578 23.9403 61.8033 23.7572V22.1143H60.354V21.1507H62.9407V24.4317Z" fill="white"/>
<path d="M68.5581 22.7407H65.2082C65.221 23.1968 65.3602 23.5485 65.6258 23.7958C65.8945 24.0431 66.2625 24.1668 66.7296 24.1668C67.2543 24.1668 67.7358 24.0094 68.1741 23.6946V24.5956C67.7262 24.8782 67.1343 25.0195 66.3984 25.0195C65.6754 25.0195 65.1074 24.7963 64.6947 24.3498C64.2852 23.9002 64.0804 23.269 64.0804 22.4564C64.0804 21.6887 64.306 21.064 64.7571 20.5822C65.2114 20.0972 65.7745 19.8547 66.4464 19.8547C67.1183 19.8547 67.6382 20.0715 68.0062 20.5051C68.3741 20.9388 68.5581 21.541 68.5581 22.3119V22.7407ZM67.483 21.9505C67.4798 21.549 67.3855 21.2375 67.1999 21.0158C67.0143 20.791 66.7584 20.6786 66.432 20.6786C66.1121 20.6786 65.8401 20.7958 65.6162 21.0303C65.3954 21.2648 65.2594 21.5715 65.2082 21.9505H67.483Z" fill="white"/>
<path d="M72.3085 24.8509C72.091 24.9601 71.8046 25.0147 71.4495 25.0147C70.496 25.0147 70.0193 24.5554 70.0193 23.6368V20.8472H69.1987V19.9704H70.0193V18.8285L71.1327 18.5105V19.9704H72.3085V20.8472H71.1327V23.314C71.1327 23.6063 71.1855 23.8151 71.2911 23.9403C71.3967 24.0656 71.5727 24.1282 71.819 24.1282C72.0078 24.1282 72.1709 24.0736 72.3085 23.9644V24.8509Z" fill="white"/>
<path d="M76.7332 18.9345C76.5508 18.9345 76.394 18.8751 76.2629 18.7562C76.1349 18.6374 76.0709 18.4864 76.0709 18.3034C76.0709 18.1203 76.1349 17.9677 76.2629 17.8457C76.394 17.7236 76.5508 17.6626 76.7332 17.6626C76.9219 17.6626 77.0819 17.7236 77.2131 17.8457C77.3443 17.9677 77.4099 18.1203 77.4099 18.3034C77.4099 18.4768 77.3443 18.6262 77.2131 18.7514C77.0819 18.8735 76.9219 18.9345 76.7332 18.9345ZM77.2851 24.9039H76.1717V19.9704H77.2851V24.9039Z" fill="white"/>
<path d="M81.4339 24.8509C81.2163 24.9601 80.93 25.0147 80.5748 25.0147C79.6214 25.0147 79.1447 24.5554 79.1447 23.6368V20.8472H78.324V19.9704H79.1447V18.8285L80.2581 18.5105V19.9704H81.4339V20.8472H80.2581V23.314C80.2581 23.6063 80.3109 23.8151 80.4165 23.9403C80.522 24.0656 80.698 24.1282 80.9444 24.1282C81.1331 24.1282 81.2963 24.0736 81.4339 23.9644V24.8509Z" fill="white"/>
<path d="M88.0758 18.5105C87.9254 18.4238 87.7542 18.3804 87.5622 18.3804C87.0215 18.3804 86.7512 18.6872 86.7512 19.3007V19.9704H87.8934V20.8472H86.756V24.9039H85.6426V20.8472H84.8027V19.9704H85.6426V19.1706C85.6426 18.6503 85.8121 18.2407 86.1513 17.942C86.4904 17.6401 86.9144 17.4891 87.4231 17.4891C87.6982 17.4891 87.9158 17.5196 88.0758 17.5807V18.5105Z" fill="white"/>
<path d="M91.6343 21.0351C91.4999 20.9291 91.3063 20.8761 91.0536 20.8761C90.724 20.8761 90.4489 21.0255 90.2281 21.3242C90.0073 21.6229 89.8969 22.0292 89.8969 22.5431V24.9039H88.7835V19.9704H89.8969V20.9869H89.9161C90.0249 20.6401 90.1913 20.3702 90.4153 20.1775C90.6424 19.9816 90.8952 19.8836 91.1735 19.8836C91.3751 19.8836 91.5287 19.9142 91.6343 19.9752V21.0351Z" fill="white"/>
<path d="M94.6984 25.0195C93.9402 25.0195 93.3339 24.7899 92.8795 24.3306C92.4284 23.8681 92.2029 23.2562 92.2029 22.4949C92.2029 21.6663 92.438 21.0191 92.9083 20.5533C93.3819 20.0876 94.0186 19.8547 94.8184 19.8547C95.5863 19.8547 96.1846 20.0812 96.6133 20.5341C97.042 20.9869 97.2564 21.6149 97.2564 22.4179C97.2564 23.2048 97.0244 23.8359 96.5605 24.3113C96.0998 24.7835 95.4791 25.0195 94.6984 25.0195ZM94.7512 20.746C94.3161 20.746 93.9722 20.8986 93.7194 21.2037C93.4666 21.5089 93.3403 21.9296 93.3403 22.466C93.3403 22.9832 93.4682 23.3911 93.7242 23.6898C93.9802 23.9853 94.3225 24.133 94.7512 24.133C95.1896 24.133 95.5255 23.9869 95.7591 23.6946C95.9958 23.4023 96.1142 22.9864 96.1142 22.4468C96.1142 21.904 95.9958 21.4848 95.7591 21.1893C95.5255 20.8938 95.1896 20.746 94.7512 20.746Z" fill="white"/>
<path d="M105.84 24.9039H104.726V22.2155C104.726 21.6984 104.653 21.3242 104.505 21.0929C104.361 20.8617 104.117 20.746 103.771 20.746C103.48 20.746 103.232 20.8922 103.027 21.1845C102.826 21.4768 102.725 21.8269 102.725 22.2348V24.9039H101.607V22.124C101.607 21.2054 101.284 20.746 100.637 20.746C100.337 20.746 100.089 20.8842 99.8935 21.1604C99.7015 21.4366 99.6055 21.7947 99.6055 22.2348V24.9039H98.4921V19.9704H99.6055V20.7509H99.6247C99.9798 20.1534 100.497 19.8547 101.175 19.8547C101.514 19.8547 101.81 19.9495 102.063 20.139C102.319 20.3253 102.493 20.571 102.586 20.8761C102.951 20.1952 103.494 19.8547 104.218 19.8547C105.299 19.8547 105.84 20.5244 105.84 21.8638V24.9039Z" fill="white"/>
</svg>
