<svg width="65" height="64" viewBox="0 0 65 64" fill="none" xmlns="http://www.w3.org/2000/svg">
<path opacity="0.05" fill-rule="evenodd" clip-rule="evenodd" d="M32.3335 64C50.0066 64 64.3335 49.6731 64.3335 32C64.3335 14.3269 50.0066 0 32.3335 0C14.6604 0 0.333496 14.3269 0.333496 32C0.333496 49.6731 14.6604 64 32.3335 64Z" fill="#03FF96"/>
<path d="M36.6672 21.3333C39.4961 21.3333 42.2092 22.4571 44.2096 24.4575C46.21 26.4579 47.3338 29.171 47.3338 32C47.3338 34.829 46.21 37.5421 44.2096 39.5425C42.2092 41.5429 39.4961 42.6667 36.6672 42.6667C33.8382 42.6667 31.1251 41.5429 29.1247 39.5425C27.1243 37.5421 26.0005 34.829 26.0005 32C26.0005 29.171 27.1243 26.4579 29.1247 24.4575C31.1251 22.4571 33.8382 21.3333 36.6672 21.3333ZM36.6672 24C34.5454 24 32.5106 24.8429 31.0103 26.3432C29.51 27.8434 28.6672 29.8783 28.6672 32C28.6672 34.1217 29.51 36.1566 31.0103 37.6569C32.5106 39.1572 34.5454 40 36.6672 40C38.7889 40 40.8237 39.1572 42.324 37.6569C43.8243 36.1566 44.6672 34.1217 44.6672 32C44.6672 29.8783 43.8243 27.8434 42.324 26.3432C40.8237 24.8429 38.7889 24 36.6672 24ZM35.3338 26.6667H37.3338V31.7067L40.4405 34.8133L39.0272 36.2267L35.3338 32.5333V26.6667ZM19.3338 40C18.9802 40 18.6411 39.8595 18.391 39.6095C18.141 39.3594 18.0005 39.0203 18.0005 38.6667C18.0005 38.3131 18.141 37.9739 18.391 37.7239C18.6411 37.4738 18.9802 37.3333 19.3338 37.3333H24.4405C24.8538 38.28 25.3872 39.1733 26.0005 40H19.3338ZM20.6672 33.3333C20.3135 33.3333 19.9744 33.1929 19.7243 32.9428C19.4743 32.6928 19.3338 32.3536 19.3338 32C19.3338 31.6464 19.4743 31.3073 19.7243 31.0572C19.9744 30.8072 20.3135 30.6667 20.6672 30.6667H23.4005L23.3338 32L23.4005 33.3333H20.6672ZM22.0005 26.6667C21.6469 26.6667 21.3077 26.5262 21.0577 26.2762C20.8076 26.0261 20.6672 25.687 20.6672 25.3333C20.6672 24.9797 20.8076 24.6406 21.0577 24.3905C21.3077 24.1405 21.6469 24 22.0005 24H26.0005C25.3872 24.8267 24.8538 25.72 24.4405 26.6667H22.0005Z" fill="#03FF96"/>
</svg>
