<svg width="65" height="64" viewBox="0 0 65 64" fill="none" xmlns="http://www.w3.org/2000/svg">
<path opacity="0.05" fill-rule="evenodd" clip-rule="evenodd" d="M32.6665 64C50.3396 64 64.6665 49.6731 64.6665 32C64.6665 14.3269 50.3396 0 32.6665 0C14.9934 0 0.666504 14.3269 0.666504 32C0.666504 49.6731 14.9934 64 32.6665 64Z" fill="#03FF96"/>
<path d="M40.4392 29.0662C40.6796 28.8259 40.8146 28.4999 40.8146 28.16C40.8146 27.8201 40.6796 27.4941 40.4392 27.2537C40.1989 27.0134 39.8729 26.8784 39.533 26.8784C39.1931 26.8784 38.8671 27.0134 38.6268 27.2537L31.853 34.0301L28.9192 31.0937C28.8002 30.9747 28.659 30.8803 28.5035 30.8159C28.348 30.7515 28.1813 30.7184 28.013 30.7184C27.8447 30.7184 27.678 30.7515 27.5226 30.8159C27.3671 30.8803 27.2258 30.9747 27.1068 31.0937C26.9878 31.2128 26.8934 31.354 26.8289 31.5095C26.7645 31.665 26.7314 31.8317 26.7314 32C26.7314 32.1683 26.7645 32.3349 26.8289 32.4904C26.8934 32.6459 26.9878 32.7872 27.1068 32.9062L30.9468 36.7462C31.0657 36.8654 31.2069 36.96 31.3624 37.0245C31.5179 37.0891 31.6846 37.1223 31.853 37.1223C32.0214 37.1223 32.1881 37.0891 32.3436 37.0245C32.4991 36.96 32.6403 36.8654 32.7592 36.7462L40.4392 29.0662ZM34.0392 17.0163C33.7992 16.7763 33.4737 16.6415 33.1343 16.6415C32.7949 16.6415 32.4694 16.7763 32.2293 17.0163C29.0472 20.1933 25.5298 21.76 21.613 21.76C21.2735 21.76 20.948 21.8948 20.7079 22.1349C20.4679 22.3749 20.333 22.7005 20.333 23.04V30.7225C20.333 38.9632 24.534 44.5645 32.7285 47.2934C32.9911 47.3809 33.2749 47.3809 33.5375 47.2934C41.7295 44.5645 45.933 38.9632 45.933 30.7225V23.04C45.933 22.7005 45.7982 22.3749 45.5581 22.1349C45.3181 21.8948 44.9925 21.76 44.653 21.76C40.7336 21.76 37.2136 20.1984 34.0392 17.0163ZM22.893 24.2688C26.6818 23.9821 30.0968 22.4102 33.133 19.6813C36.1666 22.4102 39.5842 23.9821 43.373 24.2688V30.72C43.373 34.391 42.4437 37.2864 40.7592 39.5366C39.126 41.7177 36.6402 43.4867 33.133 44.7257C29.6258 43.4893 27.14 41.7177 25.5068 39.5366C23.8223 37.2864 22.893 34.3936 22.893 30.7225V24.2688Z" fill="#03FF96"/>
</svg>
