<svg width="64" height="64" viewBox="0 0 64 64" fill="none" xmlns="http://www.w3.org/2000/svg">
<path opacity="0.05" fill-rule="evenodd" clip-rule="evenodd" d="M32 64C49.6731 64 64 49.6731 64 32C64 14.3269 49.6731 0 32 0C14.3269 0 0 14.3269 0 32C0 49.6731 14.3269 64 32 64Z" fill="#03FF96"/>
<path d="M37.394 30.014L36.4458 32.8365C36.0938 33.9093 35.4947 34.8845 34.6966 35.6833C33.8986 36.482 32.924 37.0822 31.8514 37.4353L28.9967 38.3833C28.9002 38.4146 28.8161 38.4756 28.7564 38.5576C28.6967 38.6396 28.6646 38.7384 28.6646 38.8399C28.6646 38.9413 28.6967 39.0401 28.7564 39.1221C28.8161 39.2042 28.9002 39.2652 28.9967 39.2964L31.8514 40.2445C32.914 40.5978 33.8795 41.1941 34.671 41.9861C35.4625 42.7781 36.0583 43.7439 36.4108 44.8066L37.3574 47.6641C37.3877 47.7614 37.4484 47.8465 37.5305 47.907C37.6127 47.9674 37.712 48 37.814 48C37.916 48 38.0153 47.9674 38.0974 47.907C38.1796 47.8465 38.2402 47.7614 38.2706 47.6641L39.2538 44.8415C39.6068 43.7793 40.2024 42.814 40.9936 42.0221C41.7847 41.2302 42.7496 40.6335 43.8116 40.2795L46.6679 39.3314C46.7644 39.3002 46.8485 39.2392 46.9082 39.1571C46.9679 39.0751 47 38.9763 47 38.8749C47 38.7734 46.9679 38.6746 46.9082 38.5926C46.8485 38.5106 46.7644 38.4496 46.6679 38.4183L43.8482 37.4353C42.7752 37.083 41.8001 36.4832 41.002 35.6842C40.2038 34.8853 39.6049 33.9098 39.2538 32.8365L38.3056 29.979C38.2789 29.9084 38.2361 29.845 38.1805 29.794C38.1248 29.743 38.058 29.7058 37.9854 29.6854C37.9127 29.665 37.8363 29.6619 37.7622 29.6764C37.6881 29.691 37.6185 29.7227 37.559 29.7691C37.4793 29.8318 37.4216 29.9164 37.394 30.014ZM23.3458 21.8279L22.6575 23.879C22.4014 24.6594 21.9654 25.3686 21.3847 25.9495C20.804 26.5303 20.0949 26.9666 19.3146 27.2231L17.2382 27.9129C17.1688 27.9363 17.1084 27.9809 17.0657 28.0404C17.023 28.0999 17 28.1712 17 28.2445C17 28.3177 17.023 28.3891 17.0657 28.4486C17.1084 28.5081 17.1688 28.5527 17.2382 28.5761L19.3146 29.2675C20.0872 29.5242 20.7893 29.9575 21.3651 30.5331C21.9408 31.1087 22.3742 31.8107 22.6308 32.5833L23.3191 34.6627C23.3425 34.7321 23.3871 34.7924 23.4466 34.8351C23.5061 34.8779 23.5775 34.9008 23.6507 34.9008C23.724 34.9008 23.7954 34.8779 23.8549 34.8351C23.9144 34.7924 23.9589 34.7321 23.9823 34.6627L24.6989 32.6099C24.9562 31.8377 25.3898 31.136 25.9654 30.5605C26.541 29.985 27.2428 29.5514 28.0152 29.2942L30.0899 28.6027C30.1593 28.5793 30.2197 28.5347 30.2624 28.4753C30.3051 28.4158 30.3281 28.3444 30.3281 28.2711C30.3281 28.1979 30.3051 28.1265 30.2624 28.067C30.2197 28.0075 30.1593 27.963 30.0899 27.9396L28.0402 27.2231C27.2599 26.9669 26.5509 26.5306 25.9704 25.9497C25.39 25.3688 24.9544 24.6594 24.6989 23.879L24.009 21.8013C23.983 21.7327 23.936 21.674 23.8748 21.6335C23.8135 21.5931 23.7411 21.5729 23.6678 21.5759C23.5945 21.5788 23.5239 21.6047 23.4661 21.65C23.4083 21.6952 23.3662 21.7575 23.3458 21.8279ZM36.4258 16.1262L36.0809 17.1526C35.9531 17.5427 35.7354 17.8974 35.4454 18.188C35.1553 18.4786 34.801 18.6969 34.4111 18.8254L33.3729 19.1703C33.3469 19.1788 33.3232 19.1933 33.3039 19.2126C33.2846 19.2319 33.2701 19.2556 33.2616 19.2816C33.2532 19.3076 33.251 19.3352 33.2553 19.3622C33.2595 19.3892 33.2701 19.4148 33.2862 19.4369C33.3074 19.4673 33.3378 19.4901 33.3729 19.5019L34.4111 19.8468C34.7974 19.9751 35.1484 20.1918 35.4363 20.4796C35.7241 20.7674 35.9409 21.1184 36.0692 21.5047L36.4125 22.5444C36.4238 22.5797 36.446 22.6105 36.476 22.6324C36.5059 22.6542 36.542 22.666 36.5791 22.666C36.6162 22.666 36.6523 22.6542 36.6823 22.6324C36.7122 22.6105 36.7345 22.5797 36.7458 22.5444L37.1024 21.518C37.2311 21.1319 37.4479 20.7811 37.7357 20.4934C38.0235 20.2056 38.3744 19.9888 38.7605 19.8601L39.7987 19.5152C39.834 19.5039 39.8648 19.4817 39.8867 19.4518C39.9086 19.4218 39.9204 19.3857 39.9204 19.3486C39.9204 19.3115 39.9086 19.2754 39.8867 19.2455C39.8648 19.2155 39.834 19.1933 39.7987 19.182L38.7739 18.8254C38.3835 18.6973 38.0288 18.4791 37.7384 18.1885C37.4481 17.8978 37.2302 17.543 37.1024 17.1526L36.7574 16.1129C36.7444 16.0785 36.7209 16.0492 36.6903 16.029C36.6597 16.0088 36.6235 15.9987 36.5868 16.0001C36.5502 16.0016 36.5149 16.0146 36.486 16.0372C36.4571 16.0598 36.436 16.0909 36.4258 16.1262Z" stroke="#03FF96" stroke-width="2" stroke-linecap="round" stroke-linejoin="round"/>
</svg>
