<svg width="42" height="42" viewBox="0 0 42 42" fill="none" xmlns="http://www.w3.org/2000/svg">
<circle cx="20.9996" cy="21" r="21" fill="#7720CF" fill-opacity="0.1"/>
<path d="M14.5 15.3125C13.8572 15.3125 13.2289 15.1219 12.6944 14.7648C12.1599 14.4077 11.7434 13.9001 11.4974 13.3062C11.2514 12.7124 11.187 12.0589 11.3124 11.4285C11.4378 10.798 11.7474 10.2189 12.2019 9.7644C12.6564 9.30988 13.2355 9.00035 13.866 8.87495C14.4964 8.74955 15.1499 8.81391 15.7437 9.05989C16.3376 9.30588 16.8452 9.72244 17.2023 10.2569C17.5594 10.7914 17.75 11.4197 17.75 12.0625C17.75 12.9245 17.4076 13.7511 16.7981 14.3606C16.1886 14.9701 15.362 15.3125 14.5 15.3125ZM14.5 10.4375C14.1786 10.4375 13.8644 10.5328 13.5972 10.7114C13.33 10.8899 13.1217 11.1437 12.9987 11.4406C12.8757 11.7376 12.8435 12.0643 12.9062 12.3795C12.9689 12.6947 13.1237 12.9843 13.351 13.2116C13.5782 13.4388 13.8678 13.5936 14.183 13.6563C14.4982 13.719 14.8249 13.6868 15.1219 13.5638C15.4188 13.4408 15.6726 13.2325 15.8511 12.9653C16.0297 12.6981 16.125 12.3839 16.125 12.0625C16.125 11.6315 15.9538 11.2182 15.649 10.9135C15.3443 10.6087 14.931 10.4375 14.5 10.4375ZM27.5 15.3125C26.8572 15.3125 26.2289 15.1219 25.6944 14.7648C25.1599 14.4077 24.7434 13.9001 24.4974 13.3062C24.2514 12.7124 24.187 12.0589 24.3124 11.4285C24.4378 10.798 24.7474 10.2189 25.2019 9.7644C25.6564 9.30988 26.2355 9.00035 26.866 8.87495C27.4964 8.74955 28.1499 8.81391 28.7437 9.05989C29.3376 9.30588 29.8452 9.72244 30.2023 10.2569C30.5594 10.7914 30.75 11.4197 30.75 12.0625C30.75 12.9245 30.4076 13.7511 29.7981 14.3606C29.1886 14.9701 28.362 15.3125 27.5 15.3125ZM27.5 10.4375C27.1786 10.4375 26.8644 10.5328 26.5972 10.7114C26.33 10.8899 26.1217 11.1437 25.9987 11.4406C25.8757 11.7376 25.8435 12.0643 25.9062 12.3795C25.9689 12.6947 26.1237 12.9843 26.351 13.2116C26.5782 13.4388 26.8678 13.5936 27.183 13.6563C27.4982 13.719 27.8249 13.6868 28.1219 13.5638C28.4188 13.4408 28.6726 13.2325 28.8511 12.9653C29.0297 12.6981 29.125 12.3839 29.125 12.0625C29.125 11.6315 28.9538 11.2182 28.649 10.9135C28.3443 10.6087 27.931 10.4375 27.5 10.4375ZM29.125 32.375H25.875C25.444 32.375 25.0307 32.2038 24.726 31.899C24.4212 31.5943 24.25 31.181 24.25 30.75V25.0625H25.875V30.75H29.125V23.4375H30.75V18.5625C30.75 18.347 30.6644 18.1404 30.512 17.988C30.3597 17.8356 30.153 17.75 29.9375 17.75H24.7212L21 24.25L17.2787 17.75H12.0625C11.847 17.75 11.6403 17.8356 11.488 17.988C11.3356 18.1404 11.25 18.347 11.25 18.5625V23.4375H12.875V30.75H16.125V25.0625H17.75V30.75C17.75 31.181 17.5788 31.5943 17.274 31.899C16.9693 32.2038 16.556 32.375 16.125 32.375H12.875C12.444 32.375 12.0307 32.2038 11.726 31.899C11.4212 31.5943 11.25 31.181 11.25 30.75V25.0625C10.819 25.0625 10.4057 24.8913 10.101 24.5865C9.7962 24.2818 9.625 23.8685 9.625 23.4375V18.5625C9.625 17.916 9.88181 17.296 10.3389 16.8389C10.796 16.3818 11.416 16.125 12.0625 16.125H18.2212L21 21L23.7788 16.125H29.9375C30.584 16.125 31.204 16.3818 31.6611 16.8389C32.1182 17.296 32.375 17.916 32.375 18.5625V23.4375C32.375 23.8685 32.2038 24.2818 31.899 24.5865C31.5943 24.8913 31.181 25.0625 30.75 25.0625V30.75C30.75 31.181 30.5788 31.5943 30.274 31.899C29.9693 32.2038 29.556 32.375 29.125 32.375Z" fill="#8A32E4"/>
</svg>
