<svg width="24" height="24" viewBox="0 0 24 24" fill="none" xmlns="http://www.w3.org/2000/svg">
<circle cx="12" cy="12" r="11.25" fill="#19202D" stroke="#387FE9" stroke-width="1.5"/>
<path d="M12 9.08333C11.6792 9.08333 11.4047 8.96919 11.1764 8.74092C10.9481 8.51264 10.8338 8.23789 10.8334 7.91667C10.8334 7.59583 10.9477 7.32128 11.1764 7.093C11.405 6.86472 11.6796 6.75039 12 6.75C12.3209 6.75 12.5956 6.86433 12.8243 7.093C13.053 7.32167 13.1671 7.59622 13.1667 7.91667C13.1667 8.2375 13.0526 8.51225 12.8243 8.74092C12.596 8.96958 12.3213 9.08372 12 9.08333ZM11.125 17.25V10.25H12.875V17.25H11.125Z" fill="#387FE9"/>
</svg>
