<svg width="20" height="20" viewBox="0 0 20 20" fill="none" xmlns="http://www.w3.org/2000/svg">
<path d="M11.7298 7.19375L8.46726 1.83125C8.25476 1.46875 7.87351 1.25 7.45476 1.25H3.33601C2.42976 1.25 1.86101 2.225 2.30476 3.0125C3.12953 4.4717 4.2936 5.7108 5.69851 6.625C6.17351 6.99375 6.76101 7.19375 7.36726 7.19375H11.7298Z" fill="#0074BA"/>
<path d="M16.661 1.25H12.5422C12.1235 1.25 11.7422 1.46875 11.5297 1.83125L8.26721 7.19375H12.636C13.2422 7.19375 13.8235 6.99375 14.3047 6.625C15.711 5.7125 16.8735 4.475 17.6985 3.0125C18.136 2.225 17.5672 1.25 16.661 1.25Z" fill="#00A6ED"/>
<path d="M9.97471 18.7506C13.4403 18.7506 16.2497 15.8712 16.2497 12.3194C16.2497 8.7675 13.4403 5.88812 9.97471 5.88812C6.50908 5.88812 3.69971 8.7675 3.69971 12.3194C3.69971 15.8712 6.50908 18.7506 9.97471 18.7506Z" fill="#BEBEBE"/>
<path d="M9.97474 17.9756C8.49974 17.9756 7.11224 17.3881 6.07474 16.3194C5.03055 15.2505 4.44905 13.8136 4.45599 12.3194C4.45599 10.8069 5.03099 9.38813 6.07474 8.31938C6.58118 7.79601 7.18769 7.37983 7.85822 7.09561C8.52875 6.81139 9.24959 6.66492 9.97787 6.66492C10.7061 6.66492 11.427 6.81139 12.0975 7.09561C12.768 7.37983 13.3746 7.79601 13.881 8.31938C16.031 10.5256 16.031 14.1131 13.881 16.3194C12.831 17.3881 11.4435 17.9756 9.97474 17.9756ZM9.96849 7.43188C8.74974 7.43188 7.52474 7.90688 6.59974 8.86313C5.69993 9.78789 5.1994 11.0291 5.20599 12.3194C5.20599 13.6256 5.69974 14.8506 6.59974 15.7756C7.03603 16.2286 7.55928 16.5889 8.13814 16.8348C8.717 17.0808 9.33956 17.2073 9.96849 17.2069C11.2435 17.2069 12.4372 16.7006 13.3372 15.7756C15.1935 13.8694 15.1935 10.7694 13.3372 8.86313C12.9013 8.40966 12.3781 8.04909 11.7992 7.80312C11.2202 7.55715 10.5975 7.43087 9.96849 7.43188Z" fill="#E6E6E6"/>
<path d="M11.1486 14.9688H8.66732C8.54778 14.9691 8.43066 14.9351 8.32985 14.8708C8.22904 14.8066 8.14878 14.7148 8.09857 14.6063C8.04644 14.4988 8.02639 14.3785 8.04079 14.2599C8.0552 14.1413 8.10347 14.0294 8.17982 13.9375L10.2423 11.4063C10.4048 11.2063 10.3298 10.9938 10.3048 10.9313C10.2758 10.8585 10.2258 10.796 10.1613 10.7515C10.0969 10.707 10.0207 10.6826 9.94232 10.6813H9.91107C9.71107 10.6813 9.52982 10.775 9.41107 10.9375C9.21107 11.2188 8.81732 11.2875 8.52982 11.0875C8.46201 11.0396 8.40434 10.9787 8.36009 10.9085C8.31584 10.8382 8.28589 10.7599 8.27196 10.678C8.25802 10.5962 8.26038 10.5123 8.27889 10.4314C8.29739 10.3504 8.33169 10.2739 8.37982 10.2063C8.72982 9.71251 9.29857 9.41876 9.90482 9.41876H9.98607C10.6236 9.45001 11.1798 9.83126 11.4423 10.4125C11.7111 11.0125 11.6236 11.6938 11.2111 12.2L9.99232 13.7H11.1423C11.4923 13.7 11.7736 13.9813 11.7736 14.3313C11.7736 14.6813 11.4986 14.9688 11.1486 14.9688Z" fill="#636363"/>
</svg>
