<svg width="20" height="20" viewBox="0 0 20 20" fill="none" xmlns="http://www.w3.org/2000/svg">
<path d="M11.7298 7.19375L8.46726 1.83125C8.25476 1.46875 7.87351 1.25 7.45476 1.25H3.33601C2.42976 1.25 1.86101 2.225 2.30476 3.0125C3.12953 4.4717 4.2936 5.7108 5.69851 6.625C6.17351 6.99375 6.76101 7.19375 7.36726 7.19375H11.7298Z" fill="#0074BA"/>
<path d="M16.661 1.25H12.5422C12.1235 1.25 11.7422 1.46875 11.5297 1.83125L8.26721 7.19375H12.636C13.2422 7.19375 13.8235 6.99375 14.3047 6.625C15.711 5.7125 16.8735 4.475 17.6985 3.0125C18.136 2.225 17.5672 1.25 16.661 1.25Z" fill="#00A6ED"/>
<path d="M9.99351 18.75C13.4591 18.75 16.2685 15.8706 16.2685 12.3188C16.2685 8.76689 13.4591 5.88751 9.99351 5.88751C6.52788 5.88751 3.71851 8.76689 3.71851 12.3188C3.71851 15.8706 6.52788 18.75 9.99351 18.75Z" fill="#FFB02E"/>
<path d="M8.79724 10.0256C8.79724 9.85987 8.86309 9.7009 8.9803 9.58369C9.09751 9.46648 9.25648 9.40063 9.42224 9.40063H9.99974C10.1655 9.40063 10.3245 9.46648 10.4417 9.58369C10.5589 9.7009 10.6247 9.85987 10.6247 10.0256V14.375C10.6247 14.5408 10.5589 14.6997 10.4417 14.817C10.3245 14.9342 10.1655 15 9.99974 15C9.83398 15 9.67501 14.9342 9.5578 14.817C9.44059 14.6997 9.37474 14.5408 9.37474 14.375V10.6488C9.21767 10.6368 9.07091 10.5659 8.96384 10.4504C8.85676 10.3349 8.79726 10.1832 8.79724 10.0256Z" fill="#6D4534"/>
<path d="M9.99977 17.975C8.52477 17.975 7.13727 17.3875 6.09977 16.3188C5.05558 15.2499 4.47408 13.813 4.48102 12.3188C4.48102 10.8063 5.05602 9.38752 6.09977 8.31877C6.6062 7.7954 7.21272 7.37923 7.88324 7.095C8.55377 6.81078 9.27461 6.66431 10.0029 6.66431C10.7312 6.66431 11.452 6.81078 12.1225 7.095C12.7931 7.37923 13.3996 7.7954 13.906 8.31877C16.056 10.525 16.056 14.1125 13.906 16.3188C12.856 17.3875 11.4685 17.975 9.99977 17.975ZM9.99352 7.43127C8.77477 7.43127 7.54977 7.90627 6.62477 8.86252C5.72501 9.78732 5.22449 11.0285 5.23102 12.3188C5.23102 13.625 5.72477 14.85 6.62477 15.775C7.06105 16.228 7.58431 16.5883 8.16317 16.8342C8.74203 17.0802 9.36458 17.2067 9.99352 17.2063C11.2685 17.2063 12.4623 16.7 13.3623 15.775C15.2185 13.8688 15.2185 10.7688 13.3623 8.86252C12.9263 8.40905 12.4032 8.04848 11.8242 7.80251C11.2453 7.55654 10.6225 7.43026 9.99352 7.43127Z" fill="#FCD53F"/>
</svg>
