<svg width="20" height="20" viewBox="0 0 20 20" fill="none" xmlns="http://www.w3.org/2000/svg">
<path d="M11.7298 7.19375L8.46726 1.83125C8.25476 1.46875 7.87351 1.25 7.45476 1.25H3.33601C2.42976 1.25 1.86101 2.225 2.30476 3.0125C3.12953 4.4717 4.2936 5.7108 5.69851 6.625C6.17351 6.99375 6.76101 7.19375 7.36726 7.19375H11.7298Z" fill="#0074BA"/>
<path d="M16.661 1.25H12.5422C12.1235 1.25 11.7422 1.46875 11.5297 1.83125L8.26721 7.19375H12.636C13.2422 7.19375 13.8235 6.99375 14.3047 6.625C15.711 5.7125 16.8735 4.475 17.6985 3.0125C18.136 2.225 17.5672 1.25 16.661 1.25Z" fill="#00A6ED"/>
<path d="M9.99351 18.75C13.4591 18.75 16.2685 15.8706 16.2685 12.3188C16.2685 8.76689 13.4591 5.88751 9.99351 5.88751C6.52788 5.88751 3.71851 8.76689 3.71851 12.3188C3.71851 15.8706 6.52788 18.75 9.99351 18.75Z" fill="#D3883E"/>
<path d="M9.99977 17.975C8.52477 17.975 7.13727 17.3875 6.09977 16.3188C5.05558 15.2499 4.47408 13.813 4.48102 12.3188C4.48102 10.8063 5.05602 9.38752 6.09977 8.31877C6.6062 7.7954 7.21272 7.37923 7.88324 7.095C8.55377 6.81078 9.27461 6.66431 10.0029 6.66431C10.7312 6.66431 11.452 6.81078 12.1225 7.095C12.7931 7.37923 13.3996 7.7954 13.906 8.31877C16.056 10.525 16.056 14.1125 13.906 16.3188C12.856 17.3875 11.4685 17.975 9.99977 17.975ZM9.99352 7.43127C8.77477 7.43127 7.54977 7.90627 6.62477 8.86252C5.72501 9.78732 5.22449 11.0285 5.23102 12.3188C5.23102 13.625 5.72477 14.85 6.62477 15.775C7.06105 16.228 7.58431 16.5883 8.16317 16.8342C8.74203 17.0802 9.36458 17.2067 9.99352 17.2063C11.2685 17.2063 12.4623 16.7 13.3623 15.775C15.2185 13.8688 15.2185 10.7688 13.3623 8.86252C12.9263 8.40905 12.4032 8.04848 11.8242 7.80251C11.2453 7.55654 10.6225 7.43026 9.99352 7.43127Z" fill="#F3AD61"/>
<path d="M10.8761 11.4219L11.5311 10.2906C11.5842 10.1977 11.6122 10.0924 11.6122 9.98531C11.6122 9.87821 11.5842 9.77297 11.5311 9.68C11.4779 9.58713 11.4011 9.50999 11.3084 9.45641C11.2158 9.40284 11.1106 9.37476 11.0036 9.375H9.07105C8.91257 9.38007 8.76227 9.4466 8.65196 9.5605C8.54164 9.6744 8.47996 9.82675 8.47996 9.98531C8.47996 10.1439 8.54164 10.2962 8.65196 10.4101C8.76227 10.524 8.91257 10.5906 9.07105 10.5956H9.94793L9.47793 11.415C9.39196 11.5211 9.34478 11.6534 9.34418 11.79C9.34418 12.1275 9.61793 12.4006 9.9548 12.4006C10.3361 12.4006 10.6473 12.7119 10.6473 13.0931C10.6473 13.4744 10.3361 13.7863 9.9548 13.7863C9.6623 13.7863 9.40168 13.6019 9.30605 13.3281C9.25163 13.1769 9.13964 13.0532 8.99448 12.9842C8.84932 12.9151 8.68275 12.9062 8.53105 12.9594C8.45563 12.9857 8.38618 13.0267 8.32673 13.0801C8.26728 13.1334 8.219 13.198 8.18471 13.2702C8.15041 13.3423 8.13077 13.4206 8.12692 13.5003C8.12307 13.5801 8.1351 13.6599 8.1623 13.735C8.29518 14.1043 8.53846 14.4238 8.85913 14.6501C9.17979 14.8764 9.56232 14.9986 9.9548 15C10.4602 14.9995 10.9448 14.7985 11.3022 14.4411C11.6596 14.0837 11.8606 13.5992 11.8611 13.0938C11.8602 12.7527 11.7685 12.418 11.5954 12.1242C11.4223 11.8303 11.174 11.5879 10.8761 11.4219Z" fill="#402A32"/>
</svg>
